<svg width="48" height="48" viewBox="0 0 48 48" fill="none" xmlns="http://www.w3.org/2000/svg">
<path d="M14.7239 22.0882L9.63844 19.2408L4.51374 22.0882C1.62733 23.6757 0 26.8472 0 30.9556V47.9989H19.2379V30.9556C19.2379 26.8472 17.6516 23.6747 14.7235 22.0882M25.9082 4.51558C24.3223 1.58785 21.1504 0 17.0421 0H0.0736478V19.1998H17.0421C21.1501 19.1998 24.3223 17.6137 25.9086 14.7256L28.7557 9.60007L25.9082 4.51558ZM30.9516 28.7588C26.925 28.7588 23.6714 30.3856 22.0851 33.2737L19.2793 38.3596L22.0851 43.4848C23.6714 46.3322 26.925 48 30.9516 48L48 47.9972V28.756L30.9516 28.7588ZM28.7964 0V17.0444C28.7964 21.071 30.423 24.3253 33.2702 25.9114L38.3949 28.7588L43.5196 25.9114C46.3663 24.325 47.9933 21.071 47.9933 17.0444V0H28.7964Z" fill="white"/>
</svg>
