<svg width="114" height="114" viewBox="0 0 114 114" fill="none" xmlns="http://www.w3.org/2000/svg">
<path d="M56.7907 0C68.0229 0 79.0028 3.33072 88.342 9.57096C97.6811 15.8112 104.96 24.6807 109.259 35.0579C113.557 45.435 114.682 56.8537 112.49 67.87C110.299 78.8864 104.89 89.0055 96.9478 96.9478C89.0055 104.89 78.8864 110.299 67.87 112.49C56.8537 114.682 45.435 113.557 35.0579 109.259C24.6807 104.96 15.8112 97.6811 9.57096 88.342C3.33072 79.0028 0 68.0229 0 56.7907C0 41.7289 5.98329 27.2839 16.6336 16.6336C27.2839 5.98329 41.7289 0 56.7907 0Z" fill="#FF6A46"/>
<path d="M11.2212 50.2415L11.6265 50.2692L11.5077 51.9964L11.2248 51.9768C10.1456 51.9027 9.62607 52.5588 9.55199 53.638C9.48682 54.5824 9.91975 55.1947 10.5669 55.2393C11.4595 55.3 11.6764 54.4752 12.0103 53.3595L12.046 53.2398C12.611 51.3269 13.3778 50.2272 15.0907 50.3451C16.9929 50.4754 17.957 52.0321 17.8186 54.0432C17.6606 56.3498 16.3172 57.7494 14.1053 57.5968L13.808 57.5762L13.9285 55.8222L14.1713 55.8392C14.4433 55.8784 14.7206 55.8558 14.9826 55.7732C15.2447 55.6907 15.4848 55.5502 15.6852 55.3621C15.8855 55.1741 16.041 54.9434 16.1401 54.6871C16.2391 54.4308 16.2792 54.1555 16.2574 53.8816C16.336 52.7346 15.7656 52.1535 15.0648 52.1053C14.2418 52.0491 13.9241 52.7301 13.5688 53.9548L13.534 54.0744C12.9681 56.0007 12.2138 57.1147 10.4991 56.9969C8.81289 56.8818 7.85956 55.3652 7.98542 53.5308C8.12378 51.5073 9.33151 50.113 11.2203 50.2424" fill="white"/>
<path d="M9.73943 43.9592L17.5883 44.343L17.6374 44.1886L10.9954 39.9933L11.9246 37.0538L20.949 39.9102L20.4277 41.5607L13.2082 39.2774L13.1591 39.4318L19.7877 43.5843L18.9969 46.0837L11.1864 45.6695L11.1373 45.8239L18.3568 48.1063L17.8347 49.7568L8.8102 46.9004L9.73943 43.9592Z" fill="white"/>
<path d="M15.9575 30.0744L25.406 32.7523L24.4508 34.3233L22.3541 33.7136L20.6411 36.5326L22.1479 38.1134L21.1928 39.6844L14.4686 32.5238L15.9575 30.0744ZM20.75 33.2254L16.5261 32.0025L16.4422 32.1408L19.4727 35.3275L20.75 33.2254Z" fill="white"/>
<path d="M26.5075 26.2129L30.4921 27.2751L29.1532 28.7265L25.3979 27.6357L24.3268 28.7962L26.902 31.1696L25.6925 32.4818L18.7425 26.079L21.5641 23.0173C21.8159 22.7055 22.1307 22.4504 22.4879 22.2686C22.8451 22.0869 23.2366 21.9827 23.6369 21.9628C24.0372 21.9429 24.4372 22.0078 24.8106 22.1532C25.1841 22.2986 25.5226 22.5213 25.8041 22.8066C26.2879 23.2121 26.6206 23.7692 26.7483 24.3874C26.8759 25.0056 26.7911 25.6489 26.5075 26.2129ZM23.1333 27.6991L24.6267 26.079C24.7553 25.95 24.8566 25.7963 24.9244 25.6272C24.9922 25.4581 25.0252 25.277 25.0213 25.0949C25.0174 24.9128 24.9768 24.7333 24.9019 24.5672C24.827 24.4011 24.7194 24.2519 24.5854 24.1284C24.4514 24.0049 24.2939 23.9098 24.1222 23.8487C23.9506 23.7876 23.7684 23.7618 23.5865 23.7728C23.4047 23.7838 23.2269 23.8315 23.0639 23.9128C22.9009 23.9942 22.756 24.1077 22.6379 24.2464L21.1446 25.8648L23.1333 27.6991Z" fill="white"/>
<path d="M30.975 15.1345L31.9391 16.4395L29.6299 18.1426L34.2894 24.4499L32.854 25.5104L28.2017 19.2031L25.8924 20.9035L24.9284 19.5985L30.975 15.1345Z" fill="white"/>
<path d="M40.4467 18.6148C40.4616 18.9735 40.52 19.329 40.6208 19.6735C40.71 19.8725 40.8091 19.9752 41.0207 19.8842C41.5803 19.6449 41.8946 18.5247 41.9606 17.3054L42.2587 17.1777C42.2659 18.8076 41.8008 20.4331 40.6949 20.908C40.589 20.9744 40.4692 21.0156 40.3449 21.0282C40.2205 21.0407 40.0949 21.0245 39.9779 20.9806C39.8609 20.9367 39.7555 20.8664 39.6701 20.7752C39.5847 20.6839 39.5214 20.5742 39.4853 20.4545C39.338 20.0231 39.2585 19.5714 39.2497 19.1156L38.915 14.2133L37.9831 14.6132L37.9759 14.2186C38.4686 13.9833 38.8811 13.608 39.1619 13.1397C39.4427 12.6715 39.5794 12.1309 39.555 11.5854L39.9647 11.4069L40.062 13.2484L41.2804 12.7262L41.3259 13.177L40.1075 13.6983L40.4467 18.6148Z" fill="white"/>
<path d="M46.9602 15.5183L47.2458 15.4291C47.053 17.4339 46.3595 18.896 45.1285 19.2629C44.1047 19.5682 43.2183 19.0558 42.8363 17.7731C42.1802 15.5701 43.1514 11.9648 45.0571 11.398C45.2143 11.335 45.383 11.3063 45.5521 11.3137C45.7212 11.3212 45.8868 11.3646 46.0378 11.4412C46.1888 11.5177 46.3217 11.6256 46.4276 11.7576C46.5336 11.8896 46.6102 12.0427 46.6523 12.2067C47.0852 13.6581 45.6204 15.4201 43.9128 16.2235C43.9421 16.5906 44.0079 16.9539 44.1092 17.308C44.36 18.1507 44.8688 18.4363 45.4481 18.2632C46.2131 18.0346 46.6978 17.0135 46.9575 15.5139M43.8905 15.7816C45.1732 15.0185 46.0872 13.5894 45.7284 12.3843C45.6168 12.0085 45.4472 11.8193 45.1232 11.9157C44.2029 12.1897 43.8235 14.1365 43.8905 15.7816Z" fill="white"/>
<path d="M48.0992 16.1146C47.7154 13.7384 49.0989 10.5151 51.0449 10.2009C51.209 10.1635 51.3791 10.1615 51.5441 10.195C51.709 10.2285 51.8649 10.2967 52.0014 10.3952C52.1379 10.4937 52.2519 10.6201 52.3356 10.7661C52.4194 10.9121 52.4712 11.0742 52.4874 11.2417C52.6079 11.9889 52.2928 12.8342 51.759 12.9208C51.6946 12.9323 51.6286 12.9305 51.5649 12.9156C51.5013 12.9006 51.4413 12.8728 51.3888 12.8339C51.3363 12.7949 51.2924 12.7456 51.2596 12.689C51.2269 12.6324 51.206 12.5697 51.1984 12.5048C51.1091 11.9576 51.8232 11.8148 51.7143 11.1203C51.7083 11.0517 51.6868 10.9853 51.6516 10.926C51.6163 10.8668 51.5682 10.8162 51.5107 10.7782C51.4533 10.7401 51.388 10.7154 51.3197 10.7061C51.2514 10.6967 51.1819 10.7028 51.1163 10.724C49.8345 10.9311 49.107 13.8018 49.406 15.6567C49.5479 16.5377 49.8961 17.1661 50.5236 17.0652C51.2573 16.9465 51.8714 15.9941 52.2803 14.7132L52.5739 14.6659C52.133 16.6002 51.2645 17.8356 50.1165 18.0212C49.0882 18.1873 48.3143 17.4634 48.0965 16.1146" fill="white"/>
<path d="M52.773 17.2759L55.7035 7.74981C55.9347 6.98929 55.8088 6.72061 54.8617 6.73578L54.9376 6.42336C56.2355 6.40283 57.1254 6.26715 57.3379 5.99312L57.5012 6.08238L54.9412 14.2231H55.0768C56.4078 11.2132 57.4673 9.84391 58.5492 9.82695C58.6806 9.81447 58.8132 9.83087 58.9377 9.875C59.0621 9.91913 59.1754 9.98994 59.2696 10.0825C59.3638 10.175 59.4367 10.287 59.4831 10.4106C59.5295 10.5342 59.5483 10.6665 59.5382 10.7981C59.5534 11.7854 58.5983 13.7438 57.9609 15.313C57.825 15.622 57.7259 15.9459 57.6655 16.278C57.6655 16.4806 57.7244 16.5877 57.9136 16.585C58.4135 16.577 59.008 15.7156 59.4391 14.7212L59.7497 14.7168C59.2829 15.9272 58.426 17.3054 57.3173 17.325C56.6032 17.3366 56.3515 16.9626 56.3435 16.4752C56.4048 16.0578 56.5354 15.6535 56.73 15.2791C57.3177 13.9723 57.7891 12.6162 58.1385 11.2266C58.1332 10.9293 58.0368 10.7955 57.8476 10.799C57.32 10.8079 55.973 12.154 54.0985 17.2554L52.773 17.2759Z" fill="white"/>
<path d="M58.9401 18.5979C59.2993 18.5554 59.6404 18.4169 59.9275 18.197C60.2147 17.9771 60.4372 17.6839 60.5719 17.3482C60.4219 17.4022 60.2618 17.422 60.1032 17.4062C60.0209 17.3991 59.9409 17.3748 59.8684 17.3351C59.7959 17.2954 59.7325 17.241 59.6821 17.1755C59.6318 17.1099 59.5956 17.0346 59.5759 16.9543C59.5562 16.874 59.5534 16.7905 59.5677 16.7091C59.5794 16.5886 59.6157 16.4718 59.6744 16.3659C59.7331 16.26 59.8129 16.1673 59.9089 16.0934C60.0049 16.0196 60.115 15.9663 60.2324 15.9368C60.3498 15.9073 60.472 15.9022 60.5915 15.9218C61.0485 15.9709 61.3797 16.3065 61.3056 16.9653C61.1592 17.4795 60.8634 17.9387 60.4556 18.2845C60.0478 18.6304 59.5464 18.8472 59.0151 18.9076L58.9401 18.5979Z" fill="white"/>
<path d="M75.2431 14.1312L75.1128 14.515L73.4775 13.9598L73.5667 13.692C73.914 12.6673 73.4132 11.996 72.3885 11.6506C71.4958 11.3471 70.7898 11.6077 70.5818 12.2227C70.2953 13.068 71.037 13.4903 72.0296 14.0972L72.1359 14.1624C73.8408 15.197 74.7075 16.2155 74.1568 17.8454C73.5444 19.6512 71.7931 20.185 69.8846 19.5414C67.695 18.7987 66.6864 17.1438 67.3978 15.0434L67.4933 14.7614L69.1581 15.3255L69.0795 15.5558C68.9723 15.8087 68.9233 16.0824 68.9362 16.3568C68.9492 16.6312 69.0237 16.8991 69.1542 17.1408C69.2848 17.3825 69.4681 17.5917 69.6905 17.7529C69.9129 17.9141 70.1687 18.0232 70.439 18.0721C71.5271 18.4408 72.2349 18.0382 72.4608 17.3732C72.7286 16.5921 72.1466 16.1101 71.0549 15.4549L70.9487 15.3898C69.2312 14.3508 68.3467 13.3367 68.8956 11.7104C69.4383 10.1099 71.1468 9.5752 72.8883 10.1661C74.8093 10.8177 75.8492 12.3406 75.2413 14.133" fill="white"/>
<path d="M81.7146 14.3142L79.3197 21.7989L79.4563 21.8881L85.228 16.5538L87.8282 18.2105L82.7403 26.1942L81.2808 25.264L85.3494 18.8773L85.2128 18.788L79.4902 24.1215L77.2783 22.712L79.6928 15.2711L79.5563 15.1818L75.4877 21.5686L74.0282 20.6384L79.1162 12.6548L81.7146 14.3142Z" fill="white"/>
<path d="M93.517 23.9117L88.4888 32.3461L87.2177 31.017L88.3496 29.1496L86.0707 26.7654L84.1542 27.8125L82.884 26.4833L91.5362 21.8417L93.517 23.9117ZM89.2324 27.7259L91.5068 23.9617L91.3952 23.8438L87.5364 25.9478L89.2324 27.7259Z" fill="white"/>
<path d="M94.5319 35.0918L92.4788 38.6713L91.4193 37.0056L93.4384 33.6547L92.5886 32.3158L89.634 34.1956L88.6762 32.6898L96.6519 27.617L98.8834 31.1313C99.1201 31.4547 99.2858 31.8245 99.3698 32.2164C99.4537 32.6083 99.4539 33.0135 99.3704 33.4055C99.2869 33.7975 99.1216 34.1674 98.8852 34.4911C98.6488 34.8148 98.3468 35.0849 97.9988 35.2838C97.4825 35.6471 96.8587 35.8256 96.2284 35.7902C95.5981 35.7549 94.9981 35.5079 94.5256 35.0892M93.9552 31.4455L95.138 33.3048C95.2286 33.4644 95.3507 33.6039 95.4969 33.7149C95.6431 33.8258 95.8103 33.9059 95.9884 33.9503C96.1665 33.9946 96.3517 34.0023 96.5329 33.9728C96.714 33.9434 96.8873 33.8774 97.0421 33.7789C97.197 33.6804 97.3302 33.5515 97.4338 33.3999C97.5373 33.2484 97.6089 33.0774 97.6442 32.8973C97.6796 32.7172 97.678 32.5318 97.6396 32.3523C97.6011 32.1729 97.5265 32.0031 97.4204 31.8534L96.2377 29.9941L93.9552 31.4455Z" fill="white"/>
<path d="M104.093 42.2498L102.584 42.847L101.528 40.1825L94.2391 43.072L93.5812 41.4126L100.87 38.524L99.8144 35.8595L101.322 35.2624L104.093 42.2498Z" fill="white"/>
<path d="M105.858 50.4816L104.266 50.7976L103.402 46.4478L101.187 46.887L101.977 50.8655L100.386 51.1815L99.5957 47.203L97.3017 47.6582L98.1809 52.0875L96.5894 52.4034L95.362 46.2238L104.645 44.3814L105.858 50.4816Z" fill="white"/>
<path d="M100.349 58.2939L96.7099 60.2353L96.6983 58.2609L100.19 56.4961L100.18 54.9144L96.6786 54.9349L96.6679 53.1497L106.12 53.0934L106.145 57.2584C106.174 57.6583 106.117 58.0596 105.98 58.4362C105.843 58.8129 105.628 59.1562 105.348 59.4438C105.069 59.7315 104.732 59.9569 104.36 60.1053C103.988 60.2537 103.588 60.3217 103.188 60.305C102.557 60.3383 101.934 60.1578 101.419 59.7928C100.904 59.4278 100.527 58.8997 100.35 58.2939M101.804 54.9019L101.817 57.1058C101.809 57.2893 101.838 57.4725 101.903 57.6443C101.968 57.8162 102.067 57.973 102.194 58.1054C102.321 58.2378 102.474 58.3429 102.644 58.4143C102.813 58.4857 102.995 58.522 103.178 58.5209C103.362 58.5198 103.543 58.4814 103.712 58.408C103.88 58.3345 104.032 58.2276 104.157 58.0937C104.283 57.9599 104.38 57.8018 104.443 57.6292C104.506 57.4566 104.533 57.2731 104.522 57.0897L104.509 54.8858L101.804 54.9019Z" fill="white"/>
<path d="M104.096 70.8166C103.99 71.199 103.809 71.5566 103.564 71.8686C103.319 72.1807 103.014 72.441 102.667 72.6345C102.321 72.828 101.939 72.9509 101.545 72.996C101.151 73.0411 100.751 73.0076 100.37 72.8974C99.9888 72.7871 99.6332 72.6024 99.3237 72.3538C99.0143 72.1052 98.7573 71.7977 98.5674 71.4491C98.3776 71.1005 98.2589 70.7178 98.2179 70.323C98.177 69.9282 98.2148 69.5292 98.3291 69.1491L98.9156 67.1229L95.5905 66.1615L96.0859 64.4477L105.178 67.0764L104.096 70.8166ZM100.474 67.5736L99.9385 69.4312C99.8802 69.6074 99.8581 69.7936 99.8734 69.9785C99.8888 70.1635 99.9412 70.3435 100.028 70.5077C100.114 70.6719 100.233 70.817 100.377 70.9342C100.521 71.0515 100.687 71.1385 100.865 71.1901C101.043 71.2417 101.23 71.2568 101.414 71.2345C101.599 71.2122 101.777 71.153 101.937 71.0604C102.098 70.9677 102.239 70.8436 102.35 70.6955C102.462 70.5473 102.543 70.3781 102.588 70.198L103.123 68.3404L100.474 67.5736Z" fill="white"/>
<path d="M94.9005 77.8576L90.7775 77.9308L91.6647 76.1679L95.5771 76.1849L96.2912 74.7718L93.167 73.1972L93.9704 71.603L102.411 75.8528L100.537 79.5724C100.38 79.9411 100.148 80.2726 99.8542 80.5453C99.5609 80.8179 99.2132 81.0256 98.8341 81.1547C98.4549 81.2837 98.0528 81.3313 97.654 81.2943C97.2552 81.2573 96.8687 81.1365 96.5197 80.9399C95.9431 80.6829 95.4701 80.2386 95.1775 79.6792C94.8849 79.1197 94.7898 78.4779 94.9077 77.8576M97.7444 75.5011L96.7536 77.4649C96.6635 77.6243 96.6067 77.8004 96.5867 77.9825C96.5667 78.1645 96.5838 78.3488 96.6371 78.524C96.6903 78.6992 96.7786 78.8618 96.8966 79.0019C97.0145 79.142 97.1597 79.2568 97.3233 79.3391C97.4868 79.4215 97.6654 79.4698 97.8482 79.4811C98.031 79.4924 98.2142 79.4665 98.3867 79.4049C98.5592 79.3434 98.7174 79.2474 98.8517 79.1229C98.9861 78.9984 99.0937 78.848 99.1682 78.6806L100.159 76.7169L97.7444 75.5011Z" fill="white"/>
<path d="M90.1293 78.6345L89.111 80.1008L96.8853 85.5003L97.9037 84.034L90.1293 78.6345Z" fill="white"/>
<path d="M93.1375 90.3446C91.5094 92.0995 89.6277 92.179 88.0817 90.7445L87.8443 90.524L89.0583 89.2154L89.3162 89.4546C89.4914 89.6391 89.7054 89.7824 89.9427 89.8741C90.1801 89.9659 90.4348 90.0038 90.6885 89.9851C90.9423 89.9663 91.1887 89.8915 91.41 89.766C91.6313 89.6405 91.8219 89.4674 91.9682 89.2592C92.1706 89.0573 92.3286 88.8155 92.4324 88.5492C92.5361 88.2829 92.5832 87.9979 92.5707 87.7124C92.5582 87.4268 92.4863 87.1471 92.3597 86.8909C92.2331 86.6346 92.0544 86.4076 91.8352 86.2242L90.1303 84.6434C89.9381 84.4266 89.7005 84.2547 89.4344 84.14C89.1683 84.0252 88.8803 83.9704 88.5906 83.9795C88.301 83.9885 88.017 84.0611 87.7585 84.1922C87.5001 84.3233 87.2737 84.5096 87.0954 84.738C86.8901 84.8937 86.7236 85.0948 86.609 85.3255C86.4944 85.5563 86.4348 85.8104 86.4348 86.068C86.4348 86.3256 86.4944 86.5798 86.609 86.8105C86.7236 87.0413 86.8901 87.2423 87.0954 87.398L87.3533 87.6372L86.1394 88.9458L85.9019 88.7254C84.3657 87.2972 84.2211 85.4878 85.9225 83.6543C87.5042 81.9494 89.5599 81.6808 91.4041 83.391L92.9903 84.8621C93.3941 85.1913 93.7221 85.6037 93.9519 86.0712C94.1818 86.5388 94.308 87.0504 94.3221 87.5712C94.3362 88.0919 94.2377 88.6096 94.0334 89.0889C93.8291 89.5681 93.5239 89.9977 93.1384 90.3482" fill="white"/>
<path d="M83.5151 98.2372L82.5546 96.9295L86.1251 94.3042L84.7861 92.4851L81.5173 94.8862L80.5569 93.5785L83.8257 91.1783L82.4412 89.2931L78.802 91.9656L77.8486 90.6579L82.9259 86.9285L88.5271 94.5515L83.5151 98.2372Z" fill="white"/>
<path d="M77.1908 93.6214C76.9678 93.7432 76.7137 93.796 76.4606 93.7733C76.2075 93.7506 75.9669 93.6534 75.7691 93.4939C75.5714 93.3344 75.4253 93.1198 75.3495 92.8773C75.2736 92.6348 75.2714 92.3753 75.3431 92.1316C75.4148 91.8878 75.5571 91.6708 75.7521 91.508C75.9472 91.3451 76.1861 91.2438 76.4387 91.2167C76.6914 91.1897 76.9463 91.2382 77.1714 91.3561C77.3965 91.474 77.5815 91.656 77.7031 91.879C77.7896 92.0257 77.8451 92.1886 77.866 92.3576C77.887 92.5265 77.873 92.698 77.825 92.8614C77.7769 93.0248 77.6959 93.1765 77.5868 93.3072C77.4777 93.438 77.3429 93.5449 77.1908 93.6214Z" fill="white"/>
<mask id="mask0_463_1136" style="mask-type:luminance" maskUnits="userSpaceOnUse" x="34" y="30" width="46" height="54">
<path d="M79.775 30.6992H34.4456V83.3097H79.775V30.6992Z" fill="white"/>
</mask>
<g mask="url(#mask0_463_1136)">
<path d="M65.0814 45.5998C65.1403 45.6097 65.1394 45.5275 65.151 45.4847C65.8392 43.021 66.24 40.3967 66.9425 37.9438C68.7751 31.5427 77.9896 33.1414 77.7183 39.6764L73.3275 68.1949C71.6957 76.2776 65.9008 80.855 57.8341 81.7298C50.3878 82.5376 41.2536 80.5248 37.5322 73.3757C36.5051 71.337 35.9698 69.0861 35.9692 66.8033C35.8576 63.8103 35.8032 60.4192 35.9264 57.4307C36.1049 53.0568 40.0619 49.955 44.3171 51.5171C44.8186 51.726 45.3037 51.9721 45.7685 52.2535C46.4621 50.8955 47.6292 49.8387 49.0491 49.2829C50.4691 48.7272 52.0434 48.7109 53.4745 49.2373L51.9892 38.4802C51.9751 37.126 52.4467 35.8115 53.3185 34.7751C54.1902 33.7387 55.4044 33.0489 56.7411 32.8307C58.0777 32.6126 59.4482 32.8805 60.6043 33.586C61.7603 34.2915 62.6254 35.3878 63.0426 36.6762L65.0814 45.5998ZM71.0271 61.9929L74.4495 39.7103C74.5432 39.1461 74.4172 38.5675 74.0975 38.0933C73.7778 37.6191 73.2886 37.2853 72.7305 37.1606C72.1723 37.036 71.5876 37.1298 71.0965 37.4229C70.6054 37.7159 70.2452 38.186 70.0899 38.7364L66.6658 53.1497C66.5853 53.4695 66.4095 53.7573 66.1616 53.9748C65.9137 54.1923 65.6056 54.3293 65.278 54.3676C64.9504 54.4058 64.619 54.3435 64.3277 54.189C64.0363 54.0344 63.7989 53.7949 63.6469 53.5023C62.2803 48.1608 61.1717 42.7425 59.8613 37.385C59.6367 36.8874 59.2498 36.4809 58.764 36.2319C58.2782 35.9829 57.7222 35.9062 57.1872 36.0143C56.6521 36.1225 56.1696 36.4091 55.8186 36.8272C55.4677 37.2454 55.2691 37.7703 55.2553 38.316C55.9364 43.1558 56.5711 48.0028 57.245 52.8435C57.32 53.3791 57.4896 53.9816 57.528 54.5029C57.611 55.6312 57.4673 56.8541 57.528 57.9913C59.2784 58.0386 61.0458 57.9279 62.7945 57.9913C63.7785 58.0153 64.7556 58.1617 65.7035 58.4269C67.8064 59.0366 69.6682 60.2842 71.0316 61.9974M48.3589 54.8323V60.8816C48.8217 60.1745 49.4209 59.5667 50.1213 59.0937C50.8217 58.6207 51.6093 58.2921 52.4382 58.127C53.0551 58.0264 53.6797 57.9809 54.3047 57.9913C54.2681 57.1272 54.352 56.2266 54.3047 55.367C54.3344 54.8855 54.2548 54.4035 54.0719 53.9571C53.8891 53.5107 53.6076 53.1114 53.2487 52.7891C52.8293 52.4377 52.3215 52.2084 51.7806 52.1262C51.2398 52.044 50.6867 52.112 50.1819 52.3227C49.677 52.5335 49.2398 52.879 48.918 53.3214C48.5962 53.7638 48.4022 54.2862 48.3571 54.8314M44.251 55.2384C43.8473 54.8428 43.3396 54.5698 42.7869 54.4513C42.2342 54.3328 41.6592 54.3737 41.1288 54.5691C40.5984 54.7645 40.1344 55.1064 39.7907 55.5552C39.4469 56.0039 39.2377 56.541 39.1871 57.104C39.296 60.3933 39.0408 63.7782 39.1871 67.0568C39.6147 76.7427 49.7523 79.4554 57.8689 78.4673C62.7463 77.8737 67.0487 75.5216 69.0919 70.9022C71.1807 66.1776 68.0333 61.4841 62.9962 61.2512C59.6935 61.0985 56.322 61.3208 53.0202 61.3128C52.5974 61.4005 52.1988 61.5794 51.8522 61.8369C51.5056 62.0944 51.2192 62.4244 51.0132 62.8039C50.8071 63.1834 50.6863 63.6032 50.6591 64.0342C50.6318 64.4651 50.6989 64.8968 50.8556 65.2992C51.0528 65.7867 51.3736 66.2144 51.7863 66.5403C52.199 66.8661 52.6895 67.0789 53.2094 67.1577C55.2732 67.3415 57.602 67.022 59.6935 67.1577C60.1187 67.1386 60.5346 67.2858 60.853 67.5682C61.1715 67.8506 61.3675 68.2459 61.3994 68.6703C61.4313 69.0947 61.2967 69.5149 61.024 69.8417C60.7514 70.1686 60.3622 70.3764 59.9389 70.4211C57.7529 70.3319 55.4633 70.547 53.2898 70.4211C51.9476 70.3453 50.6658 69.8378 49.6354 68.9744C48.605 68.1109 47.8811 66.9377 47.5716 65.6295C47.3374 65.7616 47.0744 65.8343 46.8056 65.8411C46.5368 65.8479 46.2705 65.7887 46.0299 65.6686C45.7894 65.5485 45.582 65.3712 45.4259 65.1522C45.2698 64.9333 45.1698 64.6794 45.1347 64.4128C45.0508 62.1241 45.2517 59.7506 45.1347 57.4718C45.1418 57.0599 45.0674 56.6507 44.9157 56.2677C44.7641 55.8848 44.5382 55.5356 44.251 55.2402" fill="#FF6A46"/>
<path d="M57.7092 31.923C59.0769 31.9102 60.4121 32.3402 61.5153 33.1488C62.6185 33.9574 63.4304 35.1012 63.8299 36.4094L63.8433 36.4486L65.1225 42.0597L65.2117 41.6321C65.4902 40.3387 65.7794 39.0015 66.1472 37.7162C66.4762 36.3747 67.2493 35.184 68.3408 34.3376C69.4323 33.4912 70.7779 33.0388 72.159 33.054C73.0331 33.0498 73.899 33.2215 74.7053 33.5589C75.5116 33.8962 76.2418 34.3924 76.8525 35.0177C77.4423 35.6417 77.8969 36.3809 78.1875 37.1889C78.4781 37.9969 78.5986 38.8562 78.5413 39.713V39.7585L74.1433 68.3226C72.4813 76.5579 66.7229 81.5986 57.9225 82.5519C56.8615 82.6666 55.795 82.7241 54.7278 82.7242C46.4264 82.7242 39.721 79.3724 36.7967 73.7587C35.7112 71.6121 35.1443 69.2409 35.1418 66.8354C35.0061 63.1757 34.9918 60.0024 35.0989 57.395C35.1173 55.5367 35.8546 53.7576 37.1562 52.4311C38.4578 51.1045 40.2225 50.3336 42.0802 50.2799C42.9419 50.2835 43.7962 50.4394 44.6036 50.7405C44.9006 50.8522 45.1891 50.9852 45.4668 51.1386C46.1177 50.1792 46.9929 49.3932 48.0165 48.8488C49.04 48.3044 50.181 48.0179 51.3403 48.0144C51.7243 48.0141 52.1077 48.0461 52.4864 48.1099L51.1653 38.5302V38.4785C51.1475 37.614 51.3045 36.7548 51.6268 35.9524C51.9491 35.15 52.4302 34.421 53.0411 33.8091C53.652 33.1971 54.3802 32.7149 55.1821 32.3913C55.9839 32.0676 56.8429 31.9093 57.7074 31.9257M62.2491 36.9003C61.9567 35.9277 61.355 35.077 60.5354 34.4772C59.7158 33.8775 58.7229 33.5614 57.7074 33.577C57.0634 33.5575 56.4222 33.6693 55.8229 33.9055C55.2235 34.1417 54.6785 34.4975 54.221 34.9511C53.7635 35.4047 53.4032 35.9467 53.1619 36.5441C52.9206 37.1415 52.8035 37.7817 52.8176 38.4258L54.4859 50.5048L53.1845 50.0094C52.5963 49.7859 51.9722 49.6718 51.343 49.6729C50.3438 49.6735 49.3641 49.9496 48.5116 50.4706C47.659 50.9917 46.9666 51.7377 46.5103 52.6266L46.1273 53.3889L45.0294 52.7882C44.712 52.5976 44.3797 52.4328 44.0359 52.2954C43.4104 52.0622 42.7486 51.9413 42.0811 51.9384C40.6441 51.977 39.2799 52.5788 38.2826 53.6141C37.2854 54.6494 36.735 56.0353 36.7503 57.4727C36.6441 60.0363 36.661 63.1694 36.7931 66.7837C36.7833 68.9446 37.2869 71.077 38.2624 73.0053C40.8957 78.0629 47.0503 81.0827 54.7251 81.0827C55.7327 81.0826 56.7396 81.0284 57.7413 80.9202C65.7669 80.0499 71.0138 75.4752 72.5134 68.0423L76.8873 39.6076C76.9272 38.9806 76.8384 38.352 76.6264 37.7606C76.4144 37.1691 76.0837 36.6273 75.6546 36.1683C75.198 35.7035 74.6527 35.3352 74.051 35.0854C73.4492 34.8356 72.8034 34.7094 72.1519 34.7143C71.1292 34.6984 70.132 35.0339 69.3269 35.6648C68.5217 36.2956 67.9574 37.1835 67.728 38.1803C67.371 39.4122 67.0925 40.7225 66.8193 41.9892C66.5515 43.2192 66.2838 44.4885 65.9374 45.7159C65.9043 45.9184 65.7998 46.1023 65.6427 46.2343C65.4857 46.3663 65.2865 46.4376 65.0814 46.4353H65.0144L64.9395 46.4237L64.3905 46.3345L62.2491 36.9003ZM57.6538 35.1534C58.2733 35.1487 58.8809 35.3232 59.4035 35.6557C59.9261 35.9883 60.3414 36.4648 60.5995 37.0279L60.637 37.1065L60.6575 37.1904C61.2351 39.5514 61.7822 41.9624 62.3116 44.293C62.9739 47.2137 63.6594 50.2335 64.4101 53.1765C64.4814 53.2909 64.5803 53.3855 64.6978 53.4516C64.8153 53.5178 64.9475 53.5533 65.0823 53.5549C65.267 53.549 65.4445 53.4821 65.5873 53.3648C65.73 53.2474 65.8299 53.0861 65.8714 52.906L69.2848 38.549C69.4542 37.9 69.8339 37.3255 70.3644 36.9152C70.8949 36.5048 71.5464 36.2817 72.2171 36.2808C72.6393 36.279 73.0573 36.3645 73.445 36.5317C73.8327 36.699 74.1816 36.9445 74.47 37.2529C74.7759 37.5926 75.0058 37.9936 75.1443 38.4293C75.2829 38.8649 75.3269 39.325 75.2734 39.779L71.5556 63.9987L70.3791 62.5089C69.1206 60.9324 67.406 59.783 65.4697 59.2178C64.5879 58.9708 63.6787 58.8356 62.7632 58.8152C61.8653 58.7831 60.9628 58.7982 60.0595 58.8152C59.2061 58.8286 58.3519 58.8429 57.503 58.8152L56.7416 58.7947L56.7014 58.0341C56.6693 57.4602 56.6889 56.8737 56.7059 56.3078C56.7355 55.7262 56.7355 55.1434 56.7059 54.5618C56.6757 54.2721 56.6283 53.9845 56.5639 53.7004C56.5131 53.4487 56.4622 53.197 56.4292 52.9578C56.1209 50.7381 55.818 48.5178 55.5205 46.297C55.1634 43.6738 54.8037 41.0519 54.4413 38.4312L54.4315 38.3615V38.291C54.4437 37.4469 54.7905 36.6422 55.3958 36.0537C56.001 35.4652 56.8151 35.1411 57.6592 35.1525M59.082 37.6733C58.9498 37.41 58.7463 37.1891 58.4948 37.0356C58.2433 36.8821 57.9538 36.8021 57.6592 36.8048C57.4595 36.7971 57.2603 36.829 57.073 36.8986C56.8857 36.9681 56.7139 37.074 56.5676 37.2101C56.4213 37.3462 56.3033 37.5099 56.2204 37.6917C56.1376 37.8735 56.0914 38.0699 56.0846 38.2696V38.2767C56.45 40.8755 56.807 43.4751 57.1558 46.0756C57.4533 48.2941 57.7565 50.512 58.0653 52.7293C58.0939 52.9363 58.1385 53.1533 58.1832 53.3719C58.2623 53.7251 58.3193 54.0828 58.3537 54.4431C58.3892 55.0817 58.3919 55.7216 58.3617 56.3605C58.3528 56.6407 58.3447 56.913 58.342 57.1781C58.9071 57.1781 59.4721 57.171 60.038 57.162C60.9691 57.1469 61.9001 57.1326 62.8266 57.162C63.8794 57.1868 64.9248 57.344 65.9383 57.6298C67.6258 58.125 69.1778 58.9994 70.4755 60.1863L73.639 39.5862C73.663 39.3689 73.6419 39.149 73.5773 38.9402C73.5126 38.7313 73.4057 38.538 73.2632 38.3722C73.1297 38.2312 72.9685 38.1192 72.7897 38.0434C72.6109 37.9675 72.4184 37.9293 72.2242 37.9313C71.9158 37.9289 71.6157 38.0309 71.3726 38.2206C71.1295 38.4104 70.9578 38.6768 70.8853 38.9765L67.4718 53.3398C67.3535 53.8208 67.0922 54.2547 66.7223 54.5842C66.3525 54.9137 65.8914 55.1234 65.3999 55.1855C64.9085 55.2477 64.4097 55.1594 63.9695 54.9324C63.5292 54.7054 63.1681 54.3502 62.9337 53.9138L62.8775 53.8165L62.8498 53.7076C62.0813 50.7039 61.3823 47.6297 60.7075 44.6572C60.1853 42.3614 59.6471 39.9897 59.0811 37.6706L59.082 37.6733ZM51.3572 51.2591C52.2491 51.2581 53.1117 51.5774 53.7879 52.1589C54.232 52.554 54.5831 53.0426 54.816 53.5896C55.0489 54.1366 55.1578 54.7283 55.1348 55.3223C55.1607 55.8008 55.1482 56.2792 55.1348 56.7452C55.125 57.1513 55.1143 57.5575 55.1348 57.9556L55.1714 58.817H54.3101C53.7342 58.8069 53.1586 58.8479 52.59 58.9393C51.868 59.0841 51.1822 59.372 50.5732 59.7859C49.9641 60.1998 49.444 60.7314 49.0436 61.3494L47.5377 63.5399V54.8332C47.5989 53.8629 48.0288 52.9527 48.7392 52.2889C49.4496 51.6251 50.3868 51.258 51.359 51.2627M53.479 57.187C53.479 57.0272 53.4853 56.8684 53.4888 56.7086C53.4996 56.273 53.5112 55.8383 53.4888 55.4143C53.5217 55.0459 53.4697 54.6749 53.3369 54.3297C53.2042 53.9845 52.9942 53.6743 52.723 53.4228C52.3445 53.0948 51.8608 52.9136 51.3599 52.9122C50.8137 52.9078 50.2861 53.1103 49.8831 53.4791C49.4802 53.8479 49.2319 54.3556 49.1882 54.9001V58.7634C50.0834 58.0264 51.151 57.5286 52.2909 57.3165C52.6832 57.2478 53.0794 57.2043 53.4772 57.1861M42.1971 53.5549C42.6895 53.5543 43.1771 53.6513 43.6317 53.8403C44.0863 54.0294 44.4989 54.3068 44.8455 54.6564C45.5687 55.3993 45.9724 56.3957 45.9702 57.4325C46.0309 58.6581 46.0024 59.9149 45.9765 61.1307C45.9533 62.2072 45.9283 63.3203 45.9667 64.3852C46.0017 64.5663 46.1009 64.7286 46.246 64.8424C46.3911 64.9562 46.5724 65.0138 46.7566 65.0047C46.9135 65.0038 47.068 64.9659 47.2074 64.894L48.1411 64.4236L48.3821 65.4403C48.6458 66.5779 49.2724 67.5988 50.1674 68.3488C51.0624 69.0989 52.1772 69.5374 53.3433 69.5981C54.46 69.6615 55.6053 69.632 56.7514 69.6035C57.8136 69.5767 58.8767 69.5508 59.9167 69.5928C60.1085 69.5689 60.2842 69.4734 60.4085 69.3254C60.5328 69.1774 60.5966 68.9878 60.587 68.7948C60.587 68.568 60.4861 68.0351 59.6462 67.9807C58.6468 67.935 57.6458 67.9397 56.6469 67.995C55.9971 68.0191 55.3464 68.0423 54.7091 68.0423C54.1226 68.0423 53.6102 68.0217 53.1425 67.9807C52.2534 67.866 51.4337 67.4402 50.8288 66.7787C50.2238 66.1172 49.8727 65.2628 49.8377 64.3671C49.8027 63.4713 50.0861 62.5921 50.6377 61.8855C51.1892 61.1788 51.9732 60.6903 52.8506 60.5067L52.9399 60.488H53.2032C54.3931 60.488 55.591 60.4594 56.7916 60.4308C58.01 60.4014 59.2302 60.3728 60.4469 60.3728C61.3984 60.3728 62.2473 60.3907 63.0426 60.4273C64.3334 60.4547 65.5973 60.8006 66.7221 61.4342C67.847 62.0679 68.7978 62.9697 69.4901 64.0594C70.1377 65.1332 70.5099 66.3504 70.5736 67.6028C70.6373 68.8552 70.3905 70.1039 69.8552 71.2379C67.8646 75.7394 63.646 78.5985 57.9761 79.2885C56.8971 79.4193 55.8111 79.4849 54.7242 79.4849C43.0683 79.4849 38.6328 73.0838 38.3686 67.0943C38.2919 65.3519 38.3267 63.5648 38.3606 61.8367C38.3909 60.2844 38.4222 58.6777 38.3704 57.1326V57.0862V57.0398C38.4475 56.083 38.8851 55.1913 39.5947 54.545C40.3043 53.8988 41.2329 53.5461 42.1926 53.5585M46.7504 66.6614C46.1536 66.6663 45.5758 66.4517 45.127 66.0583C44.6781 65.665 44.3896 65.1203 44.3162 64.528C44.2689 63.3372 44.2939 62.1991 44.3162 61.0994C44.3421 59.9122 44.3698 58.6893 44.3117 57.5191C44.3244 57.2085 44.2739 56.8986 44.1635 56.608C44.053 56.3174 43.8848 56.0522 43.6691 55.8285C43.4765 55.6316 43.2464 55.4754 42.9923 55.3693C42.7382 55.2632 42.4653 55.2093 42.19 55.2108C41.6531 55.2021 41.1324 55.3945 40.7301 55.75C40.3278 56.1056 40.0729 56.5987 40.0155 57.1326C40.0655 58.7063 40.0343 60.3166 40.0039 61.8733C39.9718 63.5765 39.937 65.3367 40.0111 67.0256C40.3619 74.9967 47.8376 77.8371 54.7162 77.8371C55.7363 77.837 56.7554 77.7753 57.7681 77.6523C62.8373 77.0355 66.5899 74.521 68.3359 70.5729C68.7608 69.684 68.9594 68.7039 68.9143 67.7197C68.8691 66.7355 68.5815 65.7777 68.077 64.9315C67.5245 64.0715 66.7681 63.3612 65.875 62.8639C64.982 62.3665 63.9799 62.0974 62.9578 62.0804C62.1884 62.0447 61.3627 62.0278 60.437 62.0278C59.2338 62.0278 58.027 62.0572 56.821 62.0858C55.6151 62.1143 54.3966 62.1438 53.1934 62.1438H53.1139C52.8243 62.2141 52.5525 62.3441 52.3159 62.5255C52.0794 62.7069 51.8833 62.9356 51.7402 63.1971C51.5904 63.4738 51.5028 63.7798 51.4834 64.0938C51.4639 64.4079 51.5132 64.7223 51.6277 65.0154C51.7699 65.3571 51.9959 65.6575 52.2848 65.8888C52.5738 66.1202 52.9163 66.2751 53.2809 66.3391C53.6995 66.3766 54.1637 66.3945 54.701 66.3945C55.3187 66.3945 55.9507 66.3713 56.5755 66.3481C57.6467 66.3088 58.7232 66.2713 59.7426 66.3365C60.3939 66.3368 61.0192 66.5926 61.484 67.0489C61.9488 67.5052 62.2162 68.1257 62.2286 68.7769C62.248 69.395 62.0283 69.9968 61.615 70.4569C61.2018 70.917 60.627 71.2 60.0104 71.2468L59.955 71.2522H59.8997C58.8759 71.2084 57.8288 71.2352 56.7817 71.2611C55.5892 71.2906 54.3984 71.3191 53.238 71.2539C51.8625 71.1828 50.5384 70.7083 49.4309 69.8895C48.3234 69.0707 47.4814 67.944 47.0101 66.6498C46.9212 66.6593 46.8318 66.664 46.7424 66.6641L46.7504 66.6614Z" fill="white"/>
<path d="M44.2555 55.2358C44.5426 55.5311 44.7685 55.8803 44.9202 56.2633C45.0718 56.6463 45.1463 57.0555 45.1392 57.4673C45.2525 59.7462 45.0499 62.1197 45.1392 64.4084C45.1743 64.675 45.2743 64.9289 45.4303 65.1478C45.5864 65.3667 45.7938 65.544 46.0344 65.6641C46.2749 65.7842 46.5413 65.8435 46.8101 65.8367C47.0789 65.8299 47.3419 65.7572 47.576 65.6251C47.8856 66.9333 48.6094 68.1065 49.6398 68.97C50.6702 69.8334 51.952 70.3408 53.2942 70.4167C55.4678 70.5399 57.7573 70.3212 59.9434 70.4167C60.3667 70.372 60.7559 70.1642 61.0285 69.8373C61.3011 69.5105 61.4358 69.0903 61.4038 68.6659C61.3719 68.2415 61.1759 67.8461 60.8575 67.5638C60.539 67.2814 60.1231 67.1341 59.6979 67.1532C57.6065 67.0185 55.2776 67.338 53.2139 67.1532C52.694 67.0745 52.2035 66.8617 51.7908 66.5358C51.378 66.21 51.0573 65.7823 50.86 65.2948C50.7037 64.8925 50.6369 64.461 50.6642 64.0302C50.6916 63.5995 50.8125 63.1799 51.0186 62.8006C51.2246 62.4214 51.5108 62.0916 51.8572 61.8341C52.2037 61.5767 52.6021 61.3979 53.0246 61.3101C56.3274 61.3181 59.6952 61.0959 63.0006 61.2485C68.0377 61.4815 71.186 66.1749 69.0964 70.8996C67.0541 75.5207 62.7507 77.871 57.8734 78.4646C49.7567 79.4536 39.6192 76.7401 39.1916 67.0542C39.047 63.7755 39.3032 60.3907 39.1916 57.1014C39.2421 56.5384 39.4514 56.0013 39.7951 55.5525C40.1389 55.1038 40.6029 54.7618 41.1333 54.5664C41.6637 54.371 42.2387 54.3302 42.7914 54.4487C43.3441 54.5672 43.8518 54.8401 44.2555 55.2358Z" fill="white"/>
<path d="M71.0281 61.9938C69.6647 60.2806 67.8029 59.033 65.7 58.4233C64.7521 58.1581 63.7749 58.0118 62.7909 57.9877C61.0422 57.9261 59.274 58.0368 57.5244 57.9877C57.4637 56.8496 57.6074 55.6267 57.5244 54.4984C57.486 53.9789 57.3164 53.3764 57.2414 52.839C56.5675 47.9983 55.9337 43.1514 55.2518 38.3115C55.2655 37.7658 55.4641 37.2409 55.8151 36.8228C56.166 36.4046 56.6485 36.118 57.1836 36.0099C57.7187 35.9017 58.2746 35.9784 58.7604 36.2274C59.2462 36.4764 59.6331 36.883 59.8577 37.3805C61.1681 42.7363 62.2767 48.1572 63.6434 53.4978C63.7954 53.7905 64.0328 54.03 64.3241 54.1845C64.6154 54.3391 64.9469 54.4014 65.2744 54.3631C65.602 54.3248 65.9102 54.1878 66.1581 53.9703C66.4059 53.7528 66.5818 53.465 66.6622 53.1452L70.0908 38.7346C70.2461 38.1842 70.6063 37.7142 71.0974 37.4211C71.5885 37.128 72.1732 37.0342 72.7314 37.1589C73.2895 37.2835 73.7787 37.6173 74.0985 38.0915C74.4182 38.5657 74.5441 39.1443 74.4504 39.7085L71.0281 61.9938Z" fill="white"/>
<path d="M48.358 54.8287C48.4031 54.2835 48.5971 53.7611 48.9189 53.3187C49.2407 52.8763 49.6779 52.5308 50.1828 52.3201C50.6876 52.1093 51.2407 52.0413 51.7815 52.1235C52.3224 52.2058 52.8302 52.4351 53.2496 52.7864C53.6084 53.1088 53.8897 53.5081 54.0726 53.9545C54.2554 54.4009 54.3351 54.8828 54.3056 55.3643C54.3511 56.2239 54.2672 57.1254 54.3056 57.9886C53.6806 57.9782 53.056 58.0236 52.4391 58.1243C51.6102 58.2894 50.8226 58.6181 50.1222 59.091C49.4218 59.564 48.8227 60.1718 48.3598 60.8789L48.358 54.8287Z" fill="white"/>
</g>
</svg>
