<svg width="147" height="149" viewBox="0 0 147 149" fill="none" xmlns="http://www.w3.org/2000/svg">
<path d="M33.1483 118.268C24.3569 110.319 19.0833 99.2031 18.4874 87.366C17.8915 75.5288 22.0223 63.9398 29.971 55.1483L49.8611 33.149C57.8099 24.3573 68.9256 19.0834 80.7629 18.4874C92.6002 17.8914 104.189 22.0222 112.981 29.971C121.773 37.9197 127.047 49.0354 127.643 60.8727C128.239 72.71 124.108 84.2992 116.159 93.0909L96.2689 115.09C88.3202 123.882 77.2044 129.156 65.3672 129.752C53.5299 130.348 41.94 126.216 33.1483 118.268Z" fill="#C8FF4B"/>
<path d="M39.6809 53.9172L44.074 54.9865L44.1724 54.8776L42.6673 50.6141L43.6027 49.5795L45.5865 55.4307L47.9373 57.5561L47.1166 58.4639L44.7658 56.3385L38.7449 54.9524L39.6809 53.9172Z" fill="#144107"/>
<path d="M45.9649 46.71C47.3272 45.2033 49.1588 45.1117 50.7918 46.5881L52.2076 47.8681C53.8412 49.3451 53.9658 51.1402 52.571 52.6829C51.1763 54.2255 49.3778 54.2818 47.7442 52.8048L46.3284 51.5248C44.6947 50.0478 44.5701 48.2527 45.9649 46.71ZM48.5835 51.9139C49.7091 52.9315 50.7853 52.9813 51.737 51.9287C52.6886 50.8762 52.5316 49.8098 51.406 48.7921L49.9537 47.479C48.8281 46.4613 47.7519 46.4115 46.7996 47.4647C45.8474 48.518 46.0056 49.5831 47.1312 50.6008L48.5835 51.9139Z" fill="#144107"/>
<path d="M50.1117 42.3803L54.3226 46.1875C54.7152 46.5216 55.2226 46.6897 55.7371 46.656C56.2516 46.6223 56.7328 46.3896 57.0786 46.0071C57.4244 45.6247 57.6076 45.1226 57.5894 44.6073C57.5712 44.092 57.3531 43.6041 56.9812 43.247L52.7703 39.4398L53.5911 38.532L57.8019 42.3392C59.2722 43.6685 59.2826 45.2614 57.9203 46.7682C56.558 48.275 54.9734 48.4257 53.5018 47.0952L49.291 43.2881L50.1117 42.3803Z" fill="#144107"/>
<path d="M62.5458 31.6591L69.2092 37.6728L68.0926 38.3324L66.5096 36.8795L63.5378 38.634L64.046 40.7217L62.9295 41.3813L60.882 32.6423L62.5458 31.6591ZM65.6522 36.0778L62.3244 33.04L62.1976 33.1148L63.2498 37.4962L65.6522 36.0778Z" fill="#144107"/>
<path d="M70.7211 28.2802C71.0182 28.1498 71.3398 28.0848 71.6641 28.0895C71.9885 28.0943 72.308 28.1687 72.6011 28.3078C72.8942 28.4469 73.1539 28.6473 73.3627 28.8955C73.5715 29.1438 73.7246 29.434 73.8114 29.7466C73.9618 30.1531 73.9633 30.5999 73.8157 31.0075C73.6681 31.4151 73.3809 31.7572 73.0051 31.9733L73.0483 32.1137C73.4828 32.0932 73.9114 32.2214 74.2634 32.4771C74.6153 32.7328 74.8697 33.1007 74.9845 33.5203C75.0833 33.8289 75.1156 34.155 75.0791 34.477C75.0426 34.799 74.9382 35.1096 74.7729 35.3883C74.6075 35.6669 74.3849 35.9074 74.1197 36.0936C73.8545 36.2799 73.5529 36.4078 73.2346 36.4689L69.8279 37.5044L67.3389 29.3112L70.7211 28.2802ZM69.5867 32.4997L71.7168 31.8524C71.8995 31.8218 72.0735 31.7518 72.2266 31.6474C72.3796 31.5429 72.5082 31.4064 72.6033 31.2474C72.6985 31.0883 72.7579 30.9105 72.7775 30.7262C72.7972 30.5419 72.7765 30.3556 72.7171 30.1801C72.6616 30.005 72.5697 29.8437 72.4474 29.7068C72.3251 29.5699 72.1752 29.4604 72.0075 29.3857C71.8398 29.311 71.6582 29.2726 71.4746 29.2732C71.291 29.2737 71.1096 29.3132 70.9424 29.389L68.836 30.0288L69.5867 32.4997ZM70.6722 36.07L72.8023 35.4227C72.9842 35.3921 73.1576 35.3232 73.3109 35.2205C73.4642 35.1179 73.5939 34.9838 73.6915 34.8272C73.789 34.6706 73.8521 34.495 73.8767 34.3121C73.9012 34.1293 73.8866 33.9433 73.8338 33.7665C73.786 33.5863 73.6997 33.4186 73.5808 33.2749C73.4619 33.1313 73.3132 33.0152 73.1451 32.9347C72.9769 32.8541 72.7933 32.8111 72.6068 32.8084C72.4204 32.8058 72.2356 32.8436 72.0652 32.9194L69.9114 33.5742L70.6722 36.07Z" fill="#144107"/>
<path d="M82.1204 29.1968L82.1452 29.5873L80.9245 29.6653L80.9059 29.3721C80.8954 29.1299 80.8323 28.893 80.721 28.6777C80.6097 28.4624 80.453 28.2738 80.2616 28.1251C80.0702 27.9764 79.8487 27.8711 79.6126 27.8165C79.3765 27.7619 79.1313 27.7593 78.894 27.8089C77.9413 27.8696 77.2916 28.4119 77.3381 29.1708C77.3882 29.9523 77.9204 30.2247 79.1457 30.4165L79.7148 30.5026C81.3242 30.7436 82.3323 31.3653 82.4245 32.8318C82.5247 34.4069 81.2939 35.4786 79.5356 35.5906C77.448 35.7236 76.0629 34.5859 75.9435 32.7049L75.9187 32.3145L77.1394 32.2365L77.1579 32.5297C77.1501 32.821 77.208 33.1103 77.3273 33.3762C77.4466 33.642 77.6242 33.8776 77.8471 34.0654C78.0699 34.2532 78.3322 34.3883 78.6144 34.4609C78.8966 34.5334 79.1916 34.5414 79.4773 34.4843C80.6133 34.4119 81.258 33.7576 81.2054 32.9401C81.1528 32.1226 80.5833 31.8273 79.4811 31.6648L78.9121 31.5787C77.3646 31.3467 76.2167 30.8435 76.1159 29.2558C76.0237 27.8026 77.2348 26.8061 78.8226 26.7052C80.5929 26.592 82.0082 27.4455 82.1196 29.1925" fill="#144107"/>
<path d="M88.0232 27.2029C90.024 27.5516 91.0795 29.0513 90.7019 31.2203L90.3762 33.0983C89.9986 35.2673 88.5468 36.3311 86.4981 35.9753C84.4493 35.6196 83.4418 34.1269 83.8194 31.9579L84.1451 30.08C84.5227 27.911 85.9745 26.8472 88.0232 27.2029ZM85.0184 32.1936C84.7557 33.6855 85.2905 34.6252 86.6889 34.8686C88.0874 35.1119 88.9045 34.4097 89.1646 32.9153L89.5004 30.9874C89.7631 29.4954 89.2284 28.5557 87.83 28.3124C86.4315 28.069 85.6143 28.7713 85.3543 30.2656L85.0184 32.1936Z" fill="#144107"/>
<path d="M95.2024 29.3429L92.3254 36.2027L96.2072 37.8308L95.7721 38.8687L90.7622 36.7675L94.0723 28.8655L95.2024 29.3429Z" fill="#144107"/>
<path d="M102.366 32.9547L99.0361 37.5535C98.7542 37.9801 98.6478 38.499 98.7394 39.0021C98.8309 39.5052 99.1133 39.9534 99.5274 40.2533C99.9416 40.5531 100.456 40.6814 100.962 40.6113C101.469 40.5413 101.928 40.2782 102.246 39.8772L105.576 35.2784L106.567 35.996L103.237 40.5949C102.075 42.1993 100.491 42.3836 98.8461 41.1931C97.2009 40.0025 96.8808 38.441 98.0435 36.8346L101.373 32.2358L102.366 32.9547Z" fill="#144107"/>
<path d="M112.927 42.9365L112.07 43.6667L110.277 41.562L104.615 46.3879L103.821 45.4568L109.483 40.6309L107.689 38.5263L108.546 37.7961L112.927 42.9365Z" fill="#144107"/>
<path d="M116.853 49.9856L115.856 50.5086L113.878 46.7374L111.589 47.9346L113.407 51.4027L112.411 51.9257L110.591 48.4583L108.288 49.6733L110.289 53.4884L109.293 54.0115L106.722 49.112L114.305 45.13L116.853 49.9856Z" fill="#144107"/>
<path d="M117.771 62.2634C117.708 62.2758 117.644 62.2753 117.581 62.2619C117.519 62.2485 117.46 62.2225 117.407 62.1855C117.355 62.1485 117.311 62.1013 117.278 62.0467C117.245 61.9921 117.223 61.9313 117.214 61.868C117.159 61.5672 117.315 61.2653 117.256 60.9405C117.242 60.8711 117.217 60.8044 117.182 60.7427C116.894 61.0509 116.51 61.2525 116.093 61.3147C115.394 61.4597 114.665 61.3501 114.04 61.0057C113.414 60.6612 112.932 60.1046 112.68 59.4361C112.413 58.5907 112.141 58.117 111.828 58.1739C111.575 58.2203 111.45 58.4915 111.326 59.3103L111.124 60.5165C110.96 61.5909 110.697 61.9876 110.131 62.0903C109.048 62.2887 108.163 60.9299 107.849 59.1989C107.497 57.2732 108.012 56.0094 108.771 55.8711C109.529 55.7327 110.073 56.6035 110.484 57.9804C110.605 57.4863 110.815 57.1366 111.14 57.0771C111.814 56.9538 112.323 57.905 112.592 58.6901C112.634 58.3133 112.802 57.9617 113.068 57.6916C113.334 57.4215 113.683 57.2487 114.059 57.2008C114.804 57.0533 115.577 57.1953 116.221 57.5981C116.865 58.0008 117.331 58.6339 117.525 59.3684C117.605 59.7653 117.54 60.1779 117.342 60.5312C117.657 60.8637 117.878 61.2738 117.983 61.7197C118.042 62.045 117.974 62.2189 117.772 62.2538M110.351 58.5975C110.366 58.5448 110.367 58.4826 110.383 58.4292C110.013 57.2898 109.538 56.6678 108.997 56.7673C108.323 56.8906 108.11 58.036 108.351 59.3504C108.593 60.6649 109.095 61.2418 109.588 61.1516C109.877 61.0991 110.026 60.7607 110.1 60.2125L110.351 58.5975ZM116.16 60.2351C116.834 60.1118 117.209 59.8444 117.125 59.3872C116.953 58.4489 115.223 58.0302 113.996 58.2549C113.322 58.3782 112.947 58.6455 113.034 59.1147C113.203 60.0417 114.909 60.4641 116.16 60.2351Z" fill="#144107"/>
<path d="M113.962 66.4434L113.967 66.7125C112.264 66.0598 111.158 65.1032 111.134 63.9413C111.116 62.9744 111.776 62.3257 112.987 62.3021C115.066 62.2608 117.976 63.9791 118.011 65.7768C118.029 65.9291 118.014 66.0834 117.966 66.2293C117.919 66.3752 117.842 66.5094 117.738 66.6227C117.635 66.736 117.509 66.826 117.368 66.8864C117.227 66.9469 117.075 66.9765 116.921 66.9732C115.551 67.0004 114.367 65.2979 114.077 63.6151C113.75 63.5517 113.417 63.5213 113.084 63.5244C112.289 63.5403 111.915 63.916 111.927 64.4649C111.942 65.1868 112.713 65.8565 113.96 66.4441M114.473 63.7073C114.828 65.0097 115.855 66.1515 116.991 66.1286C117.346 66.1215 117.552 66.0199 117.546 65.714C117.528 64.8453 115.919 64.0421 114.471 63.7068" fill="#144107"/>
<path d="M111.634 66.9592L115.893 69.5152C116.204 69.7261 116.535 69.9044 116.882 70.0473C117.037 70.08 117.099 70.0307 117.119 69.9352C117.195 69.5758 116.673 68.915 116.015 68.3003L116.076 68.0127C117.024 68.7889 117.791 69.89 117.606 70.7639C117.591 70.8507 117.558 70.9335 117.509 71.0066C117.46 71.0797 117.396 71.1416 117.321 71.1881C117.246 71.2346 117.162 71.2647 117.075 71.2763C116.988 71.288 116.899 71.2809 116.815 71.2556C116.395 71.1026 116.002 70.884 115.651 70.6081L113.884 69.4928L113.861 69.6004C116.241 71.4068 117.26 72.4983 117.057 73.4555C117.034 73.5576 116.989 73.6538 116.927 73.738C116.864 73.8223 116.785 73.8927 116.694 73.945C116.603 73.9973 116.503 74.0303 116.399 74.0419C116.294 74.0535 116.189 74.0436 116.089 74.0126C115.072 73.5891 114.128 73.0087 113.291 72.2925L113.268 72.4001C115.66 74.2003 116.646 75.3942 116.442 76.3647C116.428 76.483 116.387 76.5965 116.323 76.697C116.259 76.7976 116.173 76.8826 116.072 76.9462C115.972 77.0097 115.858 77.0501 115.74 77.0644C115.621 77.0786 115.501 77.0665 115.388 77.0288C114.516 76.8433 112.978 75.6036 111.726 74.7254C111.477 74.5471 111.212 74.3938 110.933 74.2678C110.755 74.2279 110.644 74.269 110.612 74.4246C110.519 74.8673 111.158 75.566 111.95 76.1485L111.889 76.4355C110.918 75.7669 109.873 74.7338 110.081 73.763C110.084 73.65 110.112 73.5391 110.165 73.4389C110.217 73.3388 110.292 73.2522 110.384 73.1857C110.475 73.1192 110.581 73.0747 110.693 73.0557C110.804 73.0366 110.918 73.0435 111.027 73.0758C111.381 73.2142 111.711 73.4067 112.006 73.6464C113.036 74.4342 114.138 75.1244 115.296 75.7081C115.559 75.7639 115.695 75.707 115.732 75.5378C115.808 75.1784 115.287 74.2184 113.211 72.6261C112.576 72.1269 111.774 71.5683 110.794 70.9369L111.043 69.7645L113.313 71.2589C114.122 71.8654 114.992 72.3856 115.909 72.811C116.172 72.8668 116.308 72.8099 116.347 72.6292C116.447 72.1628 115.511 70.8009 111.389 68.1244L111.634 66.9592Z" fill="#144107"/>
<path d="M109.969 75.5796C110.179 75.678 110.345 75.8514 110.434 76.0657C110.523 76.2801 110.528 76.5199 110.449 76.7381C110.425 76.8092 110.386 76.8743 110.335 76.9294C110.284 76.9845 110.222 77.0282 110.154 77.0579C110.085 77.0876 110.01 77.1025 109.935 77.1017C109.86 77.1009 109.786 77.0844 109.718 77.0532C109.509 76.9561 109.344 76.7847 109.255 76.5724C109.165 76.3602 109.158 76.1223 109.234 75.905C109.259 75.8336 109.298 75.7681 109.349 75.7125C109.4 75.6568 109.462 75.6123 109.531 75.5817C109.6 75.551 109.675 75.5349 109.75 75.5343C109.826 75.5338 109.901 75.5487 109.97 75.5783" fill="#144107"/>
<path d="M106.629 94.7077L102.236 93.6385L102.137 93.7474L103.643 98.0108L102.707 99.0454L100.723 93.1942L98.3726 91.0688L99.1933 90.161L101.544 92.2864L107.565 93.6725L106.629 94.7077Z" fill="#144107"/>
<path d="M100.347 101.911C98.9851 103.418 97.1535 103.509 95.5199 102.032L94.1041 100.752C92.4705 99.2754 92.3459 97.4803 93.7406 95.9377C95.1354 94.3951 96.9339 94.3388 98.5675 95.8158L99.9833 97.0958C101.617 98.5728 101.742 100.368 100.347 101.911ZM97.7288 96.7073C96.6032 95.6896 95.527 95.6399 94.5754 96.6924C93.6237 97.745 93.7807 98.8114 94.9063 99.8291L96.3587 101.142C97.4843 102.16 98.5605 102.21 99.5127 101.156C100.465 100.103 100.307 99.0381 99.1812 98.0204L97.7288 96.7073Z" fill="#144107"/>
<path d="M96.2004 106.243L91.9895 102.436C91.5969 102.102 91.0895 101.934 90.575 101.967C90.0605 102.001 89.5793 102.234 89.2335 102.616C88.8877 102.999 88.7045 103.501 88.7227 104.016C88.7409 104.531 88.959 105.019 89.3309 105.376L93.5418 109.183L92.721 110.091L88.5102 106.284C87.0399 104.955 87.0294 103.362 88.3918 101.855C89.7541 100.348 91.3387 100.198 92.8103 101.528L97.0211 105.335L96.2004 106.243Z" fill="#144107"/>
<path d="M83.7662 116.967L77.1028 110.953L78.2194 110.293L79.8023 111.746L82.7742 109.992L82.2659 107.904L83.3832 107.245L85.4306 115.984L83.7662 116.967ZM80.6597 112.548L83.9876 115.586L84.1144 115.511L83.0622 111.13L80.6597 112.548Z" fill="#144107"/>
<path d="M75.5913 120.345C75.2943 120.475 74.9727 120.54 74.6484 120.536C74.324 120.531 74.0045 120.456 73.7114 120.317C73.4183 120.178 73.1586 119.978 72.9498 119.73C72.7409 119.481 72.5879 119.191 72.5011 118.879C72.3507 118.472 72.3491 118.025 72.4967 117.618C72.6443 117.21 72.9315 116.868 73.3074 116.652L73.2642 116.512C72.8296 116.532 72.4011 116.404 72.0491 116.148C71.6972 115.892 71.4428 115.524 71.328 115.105C71.2292 114.796 71.1969 114.47 71.2334 114.148C71.2699 113.826 71.3742 113.516 71.5396 113.237C71.705 112.958 71.9276 112.718 72.1928 112.532C72.4579 112.345 72.7596 112.217 73.0779 112.156L76.4846 111.121L78.9736 119.314L75.5913 120.345ZM75.6403 112.555L73.5102 113.203C73.3293 113.235 73.1574 113.306 73.0055 113.409C72.8536 113.513 72.7253 113.647 72.6287 113.804C72.5322 113.96 72.4696 114.135 72.4451 114.318C72.4206 114.5 72.4347 114.685 72.4865 114.861C72.5383 115.038 72.6267 115.201 72.7458 115.341C72.8649 115.481 73.0121 115.595 73.1779 115.674C73.3437 115.754 73.5244 115.797 73.7082 115.802C73.8919 115.807 74.0747 115.774 74.2446 115.703L76.3984 115.049L75.6403 112.555ZM76.7258 116.126L74.5951 116.773C74.4123 116.804 74.2384 116.874 74.0853 116.979C73.9322 117.083 73.8037 117.219 73.7085 117.379C73.6134 117.538 73.554 117.715 73.5343 117.9C73.5147 118.084 73.5353 118.27 73.5948 118.446C73.6504 118.621 73.7423 118.782 73.8647 118.919C73.987 119.056 74.1369 119.165 74.3046 119.24C74.4722 119.315 74.6538 119.353 74.8373 119.352C75.0209 119.352 75.2022 119.313 75.3695 119.237L77.4764 118.596L76.7258 116.126Z" fill="#144107"/>
<path d="M64.192 119.427L64.1666 119.036L65.3872 118.958L65.4058 119.251C65.4164 119.493 65.4796 119.73 65.5909 119.946C65.7022 120.161 65.859 120.35 66.0505 120.499C66.2419 120.647 66.4634 120.753 66.6996 120.807C66.9358 120.862 67.181 120.865 67.4184 120.815C68.3705 120.754 69.0208 120.212 68.9743 119.453C68.9242 118.672 68.392 118.399 67.1666 118.207L66.5969 118.121C64.9875 117.88 63.9794 117.258 63.8872 115.792C63.7863 114.216 65.0178 113.145 66.7762 113.033C68.8643 112.9 70.2489 114.037 70.3683 115.918L70.393 116.309L69.1724 116.387L69.1538 116.094C69.1626 115.802 69.1054 115.512 68.9865 115.245C68.8676 114.978 68.6901 114.742 68.4671 114.553C68.2441 114.365 67.9814 114.229 67.6987 114.156C67.4159 114.084 67.1204 114.075 66.8341 114.133C65.6981 114.205 65.0535 114.859 65.106 115.677C65.1586 116.494 65.7281 116.79 66.8303 116.952L67.4 117.039C68.9475 117.271 70.0954 117.774 70.1962 119.362C70.2891 120.816 69.0772 121.812 67.4895 121.912C65.7191 122.026 64.3045 121.171 64.1925 119.425" fill="#144107"/>
<path d="M58.2873 121.42C56.2865 121.072 55.231 119.572 55.6086 117.403L55.9343 115.525C56.3119 113.356 57.7637 112.292 59.8124 112.648C61.8612 113.004 62.8687 114.496 62.4911 116.665L62.1654 118.543C61.7878 120.712 60.336 121.776 58.2873 121.42ZM61.2921 116.43C61.5548 114.938 61.02 113.998 59.6216 113.755C58.2231 113.511 57.406 114.214 57.1459 115.708L56.8101 117.636C56.5473 119.128 57.0821 120.068 58.4805 120.311C59.879 120.554 60.6962 119.852 60.9562 118.358L61.2921 116.43Z" fill="#144107"/>
<path d="M51.108 119.283L53.9844 112.422L50.1032 110.795L50.5384 109.757L55.5482 111.858L52.2354 119.757L51.108 119.283Z" fill="#144107"/>
<path d="M43.9468 115.67L47.2768 111.071C47.5588 110.644 47.6651 110.125 47.5735 109.622C47.482 109.119 47.1996 108.671 46.7855 108.371C46.3713 108.071 45.8573 107.943 45.3508 108.013C44.8443 108.083 44.3845 108.346 44.0673 108.747L40.7373 113.346L39.7459 112.628L43.0759 108.029C44.2381 106.425 45.8217 106.241 47.4668 107.431C49.112 108.622 49.4321 110.183 48.2694 111.79L44.9424 116.385L43.9468 115.67Z" fill="#144107"/>
<path d="M33.3825 105.692L34.2394 104.962L36.0333 107.067L41.6952 102.241L42.4887 103.172L36.8269 107.998L38.6208 110.102L37.7638 110.833L33.3825 105.692Z" fill="#144107"/>
<path d="M29.4604 98.634L30.4571 98.1109L32.435 101.882L34.7244 100.685L32.9056 97.2169L33.9023 96.6939L35.7217 100.161L38.0294 98.9504L36.0283 95.1354L37.0243 94.6105L39.5946 99.5099L32.0116 103.492L29.4604 98.634Z" fill="#144107"/>
<path d="M28.5456 86.3605C28.6084 86.3481 28.6731 86.3487 28.7357 86.3621C28.7982 86.3756 28.8574 86.4016 28.9097 86.4386C28.9619 86.4757 29.006 86.5229 29.0393 86.5776C29.0727 86.6322 29.0946 86.6931 29.1037 86.7564C29.1587 87.0573 29.0022 87.3599 29.0616 87.6839C29.0757 87.7533 29.1004 87.8201 29.135 87.8818C29.4225 87.5742 29.8054 87.3727 30.2217 87.3099C30.9211 87.1651 31.6492 87.2747 32.2749 87.6192C32.9006 87.9636 33.3827 88.5201 33.6345 89.1885C33.902 90.0339 34.1737 90.5077 34.4871 90.4507C34.7402 90.4043 34.8648 90.1331 34.9883 89.3143L35.1907 88.1081C35.3546 87.0337 35.6179 86.637 36.1845 86.5337C37.2672 86.3359 38.1527 87.694 38.4667 89.425C38.8185 91.3507 38.3034 92.6145 37.5447 92.7528C36.786 92.8912 36.2415 92.0211 35.8311 90.6435C35.7102 91.1376 35.5003 91.4873 35.1749 91.5468C34.501 91.6701 33.9923 90.719 33.7233 89.9339C33.6811 90.3106 33.5135 90.6623 33.2474 90.9324C32.9814 91.2024 32.6323 91.3753 32.2562 91.4231C31.5112 91.5707 30.738 91.4286 30.0941 91.0258C29.4502 90.6231 28.9842 89.99 28.7909 89.2555C28.7101 88.8586 28.7748 88.446 28.9732 88.0928C28.6587 87.7598 28.438 87.3495 28.3334 86.9036C28.2739 86.5783 28.3418 86.4043 28.5435 86.3695M30.1563 88.3888C29.4824 88.5121 29.1079 88.7794 29.1918 89.2366C29.3633 90.1762 31.0932 90.5937 32.321 90.3689C32.9949 90.2456 33.3694 89.9783 33.283 89.5092C33.114 88.5828 31.4074 88.161 30.1557 88.3895M35.9648 90.027C35.9498 90.0798 35.9491 90.1419 35.934 90.1946C36.3032 91.3334 36.7782 91.956 37.3196 91.8565C37.9935 91.7332 38.2077 90.5872 37.9653 89.2734C37.723 87.9596 37.2217 87.3821 36.7287 87.4722C36.4397 87.5248 36.2907 87.8632 36.2163 88.4114L35.9648 90.027Z" fill="#144107"/>
<path d="M32.3514 82.181L32.3461 81.9119C34.0491 82.5646 35.1551 83.5211 35.1788 84.683C35.1977 85.65 34.5375 86.2987 33.3262 86.3223C31.2468 86.3636 28.3371 84.6453 28.3018 82.8476C28.2843 82.6953 28.2996 82.541 28.3468 82.3951C28.3939 82.2492 28.4717 82.115 28.575 82.0017C28.6782 81.8883 28.8046 81.7984 28.9455 81.738C29.0864 81.6775 29.2386 81.6479 29.3919 81.6512C30.7622 81.624 31.9457 83.3265 32.2358 85.0093C32.5631 85.0726 32.8959 85.103 33.2292 85.1C34.0245 85.0841 34.3979 84.7084 34.3861 84.1595C34.3713 83.4376 33.5998 82.7679 32.3526 82.181M31.8434 84.9201C31.4875 83.617 30.4615 82.4758 29.3256 82.4988C28.9704 82.5059 28.7651 82.6075 28.7709 82.9134C28.7881 83.7821 30.3972 84.5853 31.8453 84.9206" fill="#144107"/>
<path d="M34.6773 81.6649L30.4202 79.1061C30.1098 78.8952 29.7784 78.7169 29.4313 78.5741C29.2762 78.5413 29.2147 78.5907 29.1948 78.6861C29.1185 79.0456 29.6411 79.7063 30.2982 80.321L30.2373 80.6087C29.2893 79.8324 28.5227 78.7314 28.7081 77.8575C28.7228 77.7706 28.7557 77.6879 28.8048 77.6148C28.8539 77.5416 28.9179 77.4797 28.9927 77.4332C29.0675 77.3867 29.1514 77.3567 29.2387 77.345C29.326 77.3334 29.4147 77.3405 29.4991 77.3657C29.9187 77.5188 30.3113 77.7373 30.6625 78.0132L32.43 79.1286L32.4525 79.0209C30.0727 77.2145 29.0537 76.123 29.2565 75.1658C29.2801 75.0637 29.3245 74.9675 29.3869 74.8833C29.4494 74.7991 29.5285 74.7287 29.6193 74.6764C29.7102 74.6241 29.8109 74.5911 29.9151 74.5795C30.0192 74.5678 30.1247 74.5778 30.2249 74.6088C31.2418 75.0322 32.186 75.6126 33.023 76.3288L33.0455 76.2212C30.654 74.4211 29.6673 73.2272 29.8713 72.2566C29.8861 72.1384 29.927 72.0249 29.991 71.9244C30.055 71.8238 30.1405 71.7387 30.2413 71.6752C30.3421 71.6117 30.4558 71.5713 30.5741 71.557C30.6924 71.5427 30.8125 71.5548 30.9255 71.5925C31.7988 71.7786 33.3361 73.0177 34.5878 73.896C34.8365 74.0743 35.1022 74.2276 35.381 74.3536C35.5586 74.3935 35.6693 74.3524 35.7014 74.1967C35.7951 73.754 35.1559 73.0554 34.3634 72.4729L34.425 72.1858C35.3955 72.8545 36.4407 73.8876 36.2329 74.8583C36.2301 74.9714 36.2014 75.0823 36.1488 75.1824C36.0962 75.2825 36.0212 75.3692 35.9297 75.4357C35.8382 75.5021 35.7327 75.5466 35.6212 75.5657C35.5097 75.5847 35.3953 75.5778 35.287 75.5455C34.9329 75.4072 34.6025 75.2147 34.3075 74.9749C33.2773 74.1872 32.1761 73.497 31.018 72.9132C30.7547 72.8574 30.6187 72.9143 30.5816 73.0835C30.5053 73.443 31.0265 74.403 33.1026 75.9952C33.7375 76.4944 34.5395 77.053 35.5195 77.6844L35.2705 78.8569L33.0009 77.3625C32.1919 76.756 31.3217 76.2358 30.4045 75.8103C30.1412 75.7545 30.0053 75.8114 29.9662 75.9921C29.8667 76.4586 30.803 77.8205 34.9246 80.4969L34.6773 81.6649Z" fill="#144107"/>
<path d="M36.3472 73.0473C36.137 72.949 35.9712 72.7756 35.8823 72.5612C35.7934 72.3469 35.7878 72.107 35.8667 71.8888C35.8909 71.8178 35.9298 71.7526 35.9807 71.6976C36.0317 71.6425 36.0936 71.5987 36.1625 71.569C36.2314 71.5393 36.3058 71.5244 36.3808 71.5252C36.4558 71.526 36.5299 71.5425 36.5981 71.5737C36.8069 71.6709 36.9721 71.8423 37.0615 72.0545C37.1509 72.2667 37.1582 72.5047 37.0819 72.7219C37.0572 72.7933 37.0181 72.8589 36.967 72.9145C36.9159 72.9701 36.854 73.0146 36.7849 73.0453C36.7159 73.0759 36.6413 73.092 36.5658 73.0926C36.4903 73.0932 36.4155 73.0782 36.346 73.0487" fill="#144107"/>
<path d="M39.285 64.0654C39.0454 64.3304 38.7325 64.5185 38.386 64.6057C38.0395 64.693 37.675 64.6755 37.3384 64.5555C37.0018 64.4355 36.7084 64.2185 36.4952 63.9317C36.282 63.645 36.1586 63.3015 36.1406 62.9446C36.1226 62.5878 36.2109 62.2336 36.3942 61.9269C36.5775 61.6202 36.8477 61.3747 37.1705 61.2216C37.4933 61.0684 37.8543 61.0144 38.2078 61.0664C38.5614 61.1184 38.8915 61.274 39.1565 61.5137C39.512 61.835 39.7252 62.2844 39.7493 62.7629C39.7734 63.2415 39.6064 63.71 39.285 64.0654Z" fill="#144107"/>
<path d="M110.664 85.6316C110.425 85.8967 110.112 86.0847 109.765 86.172C109.419 86.2592 109.054 86.2417 108.718 86.1218C108.381 86.0018 108.088 85.7847 107.874 85.498C107.661 85.2113 107.538 84.8677 107.52 84.5109C107.502 84.154 107.59 83.7998 107.773 83.4931C107.957 83.1864 108.227 82.941 108.55 82.7878C108.872 82.6346 109.233 82.5806 109.587 82.6326C109.941 82.6846 110.271 82.8403 110.536 83.0799C110.891 83.4013 111.104 83.8506 111.128 84.3292C111.153 84.8077 110.986 85.2762 110.664 85.6316Z" fill="#144107"/>
<path d="M91.8751 82.0552L91.6685 82.2837L90.7921 82.7271L58.9021 90.8042L58.3198 90.606C58.2676 90.5516 58.197 90.5082 58.1484 90.4511C58.0209 90.3225 57.9247 90.1663 57.8674 89.9945C57.81 89.8227 57.7931 89.64 57.8178 89.4606L62.821 56.7485C63.0286 56.4322 63.3318 56.1905 63.6863 56.0584L75.046 54.4977C75.2798 54.4428 75.5237 54.4475 75.7552 54.5115C75.9867 54.5755 76.1984 54.6967 76.3708 54.8639L91.7879 68.9068C91.9598 69.071 92.0935 69.2709 92.1796 69.4924C92.2656 69.7139 92.302 69.9516 92.286 70.1887C92.0482 73.773 92.2475 77.4678 92.0161 81.0409C91.9953 81.3843 91.929 81.7166 91.8745 82.0559M89.5318 78.7961C89.6057 78.5381 89.6372 78.2698 89.6249 78.0017C89.734 75.4595 89.7552 72.9092 89.842 70.3663L87.3597 68.122L84.8814 74.5915L89.5318 78.7961ZM88.1098 80.8282L83.1452 76.3396L66.9249 86.2518L88.1098 80.8282Z" fill="#144108"/>
</svg>
