<svg width="987" height="306" viewBox="0 0 987 306" fill="none" xmlns="http://www.w3.org/2000/svg">
<path d="M69.662 28.548C69.662 41.602 61.854 50.874 50.264 53.68L68.442 87.84H52.826L35.868 54.534H20.374V87.84H6.222V2.43999H42.822C58.682 2.43999 69.662 12.81 69.662 28.548ZM20.374 15.372V41.602H41.358C50.142 41.602 55.51 36.722 55.51 28.548C55.51 20.252 50.264 15.372 41.358 15.372H20.374ZM72.4937 57.218C72.4937 39.284 85.0597 25.864 102.628 25.864C120.196 25.864 131.908 38.43 131.908 56.242V62.098H86.4017C87.0117 71.492 93.7217 77.958 103.482 77.958C112.144 77.958 116.902 73.322 119.586 68.076L130.688 74.42C126.296 81.252 118.976 89.548 103.726 89.548C85.4257 89.548 72.4937 75.64 72.4937 57.218ZM86.4017 52.094H118.122C117.512 43.066 111.778 37.454 102.506 37.454C92.9897 37.454 87.4997 43.066 86.4017 52.094ZM316.33 0.731991C334.264 0.731991 347.684 10.37 347.684 27.694V31.476H333.776V28.67C333.776 18.3 326.822 13.298 316.33 13.298C307.302 13.298 301.202 17.934 301.202 24.644C301.202 32.574 307.546 34.77 318.77 37.332L322.064 38.064C338.778 41.724 348.782 48.19 348.782 63.318C348.782 79.788 335.606 89.548 317.794 89.548C296.932 89.548 283.634 77.836 283.634 58.438V55.144H297.664V57.706C297.664 69.662 304.618 76.982 318.038 76.982C328.896 76.982 334.752 71.126 334.752 63.928C334.752 56.12 328.896 53.192 317.794 50.874L314.5 50.142C298.03 46.482 287.172 40.626 287.172 24.888C287.172 10.004 300.104 0.731991 316.33 0.731991ZM356.409 112.24V27.694H369.585V36.6H371.293C374.587 31.354 379.955 25.986 391.179 25.986C406.673 25.986 419.117 39.162 419.117 57.706C419.117 76.25 406.673 89.548 391.179 89.548C379.955 89.548 374.587 84.18 371.293 78.812H369.829V112.24H356.409ZM387.641 77.592C398.011 77.592 405.697 70.394 405.697 57.706C405.697 45.018 398.011 37.942 387.641 37.942C377.027 37.942 369.829 45.384 369.829 57.706C369.829 70.028 377.027 77.592 387.641 77.592ZM438.926 27.694V36.966H440.634C442.83 30.378 447.832 27.45 456.006 27.45H462.35V40.016H452.59C444.416 40.016 439.292 44.53 439.292 53.314V87.84H425.872V27.694H438.926ZM527.986 27.694L500.658 50.63L527.254 87.84H511.516L491.02 58.682L480.162 67.71V87.84H466.742V2.43999H480.162V50.63H481.626L508.832 27.694H527.986ZM528.382 9.75999C528.382 4.02599 532.896 -7.15256e-06 538.508 -7.15256e-06C544.12 -7.15256e-06 548.512 4.02599 548.512 9.75999C548.512 15.372 544.12 19.52 538.508 19.52C532.896 19.52 528.382 15.372 528.382 9.75999ZM545.218 27.694V87.84H531.798V27.694H545.218ZM555.75 27.694H568.926V37.576H570.634C573.318 31.964 578.808 26.718 590.276 26.718C603.33 26.718 613.7 35.624 613.7 51.728V87.84H600.28V52.948C600.28 43.554 595.034 38.43 585.762 38.43C575.27 38.43 569.17 45.018 569.17 56.608V87.84H555.75V27.694ZM669.177 27.694H682.353V85.888C682.353 102.236 670.641 113.948 652.097 113.948C635.749 113.948 626.477 106.262 620.499 97.112L632.089 90.158C635.383 96.502 641.483 102.236 651.243 102.236C661.491 102.236 668.933 96.868 668.933 85.278V77.104H667.469C664.297 82.472 658.807 87.84 647.583 87.84C632.211 87.84 619.645 75.03 619.645 56.852C619.645 38.796 632.211 25.986 647.583 25.986C658.807 25.986 664.297 31.354 667.469 36.6H669.177V27.694ZM651.121 75.884C661.735 75.884 668.933 68.808 668.933 56.852C668.933 45.018 661.735 37.942 651.121 37.942C640.751 37.942 633.065 44.652 633.065 56.852C633.065 69.174 640.751 75.884 651.121 75.884ZM-1.30385e-07 110.44H67.588V123.372H40.87V195.84H26.718V123.372H-1.30385e-07V110.44ZM56.1715 165.218C56.1715 147.284 68.7375 133.864 86.3055 133.864C103.873 133.864 115.585 146.43 115.585 164.242V170.098H70.0795C70.6895 179.492 77.3995 185.958 87.1595 185.958C95.8215 185.958 100.579 181.322 103.263 176.076L114.365 182.42C109.973 189.252 102.653 197.548 87.4035 197.548C69.1035 197.548 56.1715 183.64 56.1715 165.218ZM70.0795 160.094H101.799C101.189 151.066 95.4555 145.454 86.1835 145.454C76.6675 145.454 71.1775 151.066 70.0795 160.094ZM118.01 165.706C118.01 147.162 131.552 133.986 149.242 133.986C165.712 133.986 176.204 143.624 179.01 157.166L165.834 160.216C164.858 152.408 159.368 146.064 149.364 146.064C138.994 146.064 131.43 153.872 131.43 165.706C131.43 177.54 138.75 185.47 149.486 185.47C159.856 185.47 164.37 179.126 165.956 171.318L179.132 174.368C176.326 186.934 166.688 197.548 149.364 197.548C131.552 197.548 118.01 184.25 118.01 165.706ZM185.299 110.44H198.719V145.576H200.183C202.867 139.964 208.357 134.718 219.825 134.718C232.879 134.718 243.249 143.624 243.249 159.728V195.84H229.829V160.948C229.829 151.554 224.583 146.43 215.311 146.43C204.819 146.43 198.719 153.018 198.719 164.608V195.84H185.299V110.44ZM252.976 135.694H266.152V145.576H267.86C270.544 139.964 276.034 134.718 287.502 134.718C300.556 134.718 310.926 143.624 310.926 159.728V195.84H297.506V160.948C297.506 151.554 292.26 146.43 282.988 146.43C272.496 146.43 266.396 153.018 266.396 164.608V195.84H252.976V135.694ZM316.87 165.706C316.87 146.918 330.412 133.986 348.102 133.986C365.792 133.986 379.334 146.918 379.334 165.706C379.334 184.494 365.792 197.548 348.102 197.548C330.412 197.548 316.87 184.494 316.87 165.706ZM330.29 165.706C330.29 177.784 337.488 185.47 348.102 185.47C358.716 185.47 365.914 177.784 365.914 165.706C365.914 153.628 358.716 146.064 348.102 146.064C337.488 146.064 330.29 153.628 330.29 165.706ZM399.485 110.44V195.84H386.065V110.44H399.485ZM406.235 165.706C406.235 146.918 419.777 133.986 437.467 133.986C455.157 133.986 468.699 146.918 468.699 165.706C468.699 184.494 455.157 197.548 437.467 197.548C419.777 197.548 406.235 184.494 406.235 165.706ZM419.655 165.706C419.655 177.784 426.853 185.47 437.467 185.47C448.081 185.47 455.279 177.784 455.279 165.706C455.279 153.628 448.081 146.064 437.467 146.064C426.853 146.064 419.655 153.628 419.655 165.706ZM521.18 135.694H534.356V193.888C534.356 210.236 522.644 221.948 504.1 221.948C487.752 221.948 478.48 214.262 472.502 205.112L484.092 198.158C487.386 204.502 493.486 210.236 503.246 210.236C513.494 210.236 520.936 204.868 520.936 193.278V185.104H519.472C516.3 190.472 510.81 195.84 499.586 195.84C484.214 195.84 471.648 183.03 471.648 164.852C471.648 146.796 484.214 133.986 499.586 133.986C510.81 133.986 516.3 139.354 519.472 144.6H521.18V135.694ZM503.124 183.884C513.738 183.884 520.936 176.808 520.936 164.852C520.936 153.018 513.738 145.942 503.124 145.942C492.754 145.942 485.068 152.652 485.068 164.852C485.068 177.174 492.754 183.884 503.124 183.884ZM588.814 135.694H603.332L569.05 220.24H554.532L563.926 198.28L538.55 135.694H553.068L570.27 180.102H571.734L588.814 135.694ZM721.228 135.694H737.21V121.908C737.21 115.198 741.846 110.44 748.434 110.44H763.928V122.03H753.924C751.728 122.03 750.63 123.128 750.63 125.568V135.694H767.1V147.284H750.63V195.84H737.21V147.284H721.228V135.694ZM767.508 165.706C767.508 146.918 781.05 133.986 798.74 133.986C816.43 133.986 829.972 146.918 829.972 165.706C829.972 184.494 816.43 197.548 798.74 197.548C781.05 197.548 767.508 184.494 767.508 165.706ZM780.928 165.706C780.928 177.784 788.126 185.47 798.74 185.47C809.354 185.47 816.552 177.784 816.552 165.706C816.552 153.628 809.354 146.064 798.74 146.064C788.126 146.064 780.928 153.628 780.928 165.706ZM849.757 135.694V144.966H851.465C853.661 138.378 858.663 135.45 866.837 135.45H873.181V148.016H863.421C855.247 148.016 850.123 152.53 850.123 161.314V195.84H836.703V135.694H849.757ZM905.53 150.456C911.264 141.306 920.17 133.986 934.81 133.986C951.158 133.986 961.65 143.38 961.65 157.654V195.84H948.474V186.812H946.766C944.57 191.57 939.324 197.548 926.758 197.548C913.216 197.548 904.31 190.228 904.31 179.004C904.31 168.756 912.24 162.534 925.782 161.192L948.352 158.874V157.288C948.352 150.334 943.35 145.698 934.322 145.698C925.416 145.698 920.048 150.09 916.754 156.8L905.53 150.456ZM918.218 178.394C918.218 183.274 922.244 186.446 929.564 186.446C942.008 186.446 948.352 179.004 948.352 169.732V168.756L928.71 170.83C922.366 171.44 918.218 173.514 918.218 178.394ZM34.648 216.732C52.582 216.732 66.002 226.37 66.002 243.694V247.476H52.094V244.67C52.094 234.3 45.14 229.298 34.648 229.298C25.62 229.298 19.52 233.934 19.52 240.644C19.52 248.574 25.864 250.77 37.088 253.332L40.382 254.064C57.096 257.724 67.1 264.19 67.1 279.318C67.1 295.788 53.924 305.548 36.112 305.548C15.25 305.548 1.952 293.836 1.952 274.438V271.144H15.982V273.706C15.982 285.662 22.936 292.982 36.356 292.982C47.214 292.982 53.07 287.126 53.07 279.928C53.07 272.12 47.214 269.192 36.112 266.874L32.818 266.142C16.348 262.482 5.49 256.626 5.49 240.888C5.49 226.004 18.422 216.732 34.648 216.732ZM131.945 303.84H118.769V293.836H117.061C114.499 299.448 108.887 304.816 97.4189 304.816C84.4869 304.816 73.9949 295.788 73.9949 279.684V243.694H87.4149V278.464C87.4149 287.858 92.6609 293.104 101.933 293.104C112.425 293.104 118.525 286.516 118.525 274.926V243.694H131.945V303.84ZM140.818 260.164C140.818 248.94 151.31 241.986 164.364 241.986C176.686 241.986 185.104 247.11 193.888 256.626L184.128 264.068C178.516 256.992 171.806 252.966 164.242 252.966C158.02 252.966 153.994 255.65 153.994 260.042C153.994 265.166 159.118 266.02 165.584 266.874L169.122 267.362C185.592 269.436 194.498 273.584 194.498 285.418C194.498 297.252 183.396 305.548 167.658 305.548C150.822 305.548 141.428 296.276 136.304 287.614L147.528 281.026C151.31 289.444 159.24 294.324 168.024 294.324C175.466 294.324 181.322 291.03 181.322 285.784C181.322 280.416 174.368 279.684 167.902 278.83L164.364 278.342C149.114 276.39 140.818 271.51 140.818 260.164ZM194.08 243.694H210.062V223.93H223.482V243.694H240.562V255.284H223.482V288.712C223.482 291.152 224.58 292.25 226.776 292.25H237.146V303.84H221.042C214.698 303.84 210.062 299.326 210.062 292.86V255.284H194.08V243.694ZM244.828 258.456C250.562 249.306 259.468 241.986 274.108 241.986C290.456 241.986 300.948 251.38 300.948 265.654V303.84H287.772V294.812H286.064C283.868 299.57 278.622 305.548 266.056 305.548C252.514 305.548 243.608 298.228 243.608 287.004C243.608 276.756 251.538 270.534 265.08 269.192L287.65 266.874V265.288C287.65 258.334 282.648 253.698 273.62 253.698C264.714 253.698 259.346 258.09 256.052 264.8L244.828 258.456ZM257.516 286.394C257.516 291.274 261.542 294.446 268.862 294.446C281.306 294.446 287.65 287.004 287.65 277.732V276.756L268.008 278.83C261.664 279.44 257.516 281.514 257.516 286.394ZM307.348 225.76C307.348 220.026 311.862 216 317.474 216C323.086 216 327.478 220.026 327.478 225.76C327.478 231.372 323.086 235.52 317.474 235.52C311.862 235.52 307.348 231.372 307.348 225.76ZM324.184 243.694V303.84H310.764V243.694H324.184ZM334.716 243.694H347.892V253.576H349.6C352.284 247.964 357.774 242.718 369.242 242.718C382.296 242.718 392.666 251.624 392.666 267.728V303.84H379.246V268.948C379.246 259.554 374 254.43 364.728 254.43C354.236 254.43 348.136 261.018 348.136 272.608V303.84H334.716V243.694ZM400.44 258.456C406.174 249.306 415.08 241.986 429.72 241.986C446.068 241.986 456.56 251.38 456.56 265.654V303.84H443.384V294.812H441.676C439.48 299.57 434.234 305.548 421.668 305.548C408.126 305.548 399.22 298.228 399.22 287.004C399.22 276.756 407.15 270.534 420.692 269.192L443.262 266.874V265.288C443.262 258.334 438.26 253.698 429.232 253.698C420.326 253.698 414.958 258.09 411.664 264.8L400.44 258.456ZM413.128 286.394C413.128 291.274 417.154 294.446 424.474 294.446C436.918 294.446 443.262 287.004 443.262 277.732V276.756L423.62 278.83C417.276 279.44 413.128 281.514 413.128 286.394ZM466.375 218.44H479.795V252.6H481.259C484.553 247.354 489.921 241.986 501.145 241.986C516.639 241.986 529.083 255.162 529.083 273.706C529.083 292.25 516.639 305.548 501.145 305.548C489.921 305.548 484.553 300.18 481.259 294.812H479.551V303.84H466.375V218.44ZM497.607 253.942C486.993 253.942 479.795 261.384 479.795 273.706C479.795 286.028 486.993 293.592 497.607 293.592C507.977 293.592 515.663 286.394 515.663 273.706C515.663 261.018 507.977 253.942 497.607 253.942ZM549.259 218.44V303.84H535.839V218.44H549.259ZM556.009 273.218C556.009 255.284 568.575 241.864 586.143 241.864C603.711 241.864 615.423 254.43 615.423 272.242V278.098H569.917C570.527 287.492 577.237 293.958 586.997 293.958C595.659 293.958 600.417 289.322 603.101 284.076L614.203 290.42C609.811 297.252 602.491 305.548 587.241 305.548C568.941 305.548 556.009 291.64 556.009 273.218ZM569.917 268.094H601.637C601.027 259.066 595.293 253.454 586.021 253.454C576.505 253.454 571.015 259.066 569.917 268.094ZM651.783 218.44H705.585V231.372H665.935V254.552H703.267V267.484H665.935V303.84H651.783V218.44ZM768.213 303.84H755.037V293.836H753.329C750.767 299.448 745.155 304.816 733.687 304.816C720.755 304.816 710.263 295.788 710.263 279.684V243.694H723.683V278.464C723.683 287.858 728.929 293.104 738.201 293.104C748.693 293.104 754.793 286.516 754.793 274.926V243.694H768.213V303.84ZM772.084 243.694H788.066V223.93H801.486V243.694H818.566V255.284H801.486V288.712C801.486 291.152 802.584 292.25 804.78 292.25H815.15V303.84H799.046C792.702 303.84 788.066 299.326 788.066 292.86V255.284H772.084V243.694ZM882.002 303.84H868.826V293.836H867.118C864.556 299.448 858.944 304.816 847.476 304.816C834.544 304.816 824.052 295.788 824.052 279.684V243.694H837.472V278.464C837.472 287.858 842.718 293.104 851.99 293.104C862.482 293.104 868.582 286.516 868.582 274.926V243.694H882.002V303.84ZM905.514 243.694V252.966H907.222C909.418 246.378 914.42 243.45 922.594 243.45H928.938V256.016H919.178C911.004 256.016 905.88 260.53 905.88 269.314V303.84H892.46V243.694H905.514ZM927.166 273.218C927.166 255.284 939.732 241.864 957.3 241.864C974.868 241.864 986.58 254.43 986.58 272.242V278.098H941.074C941.684 287.492 948.394 293.958 958.154 293.958C966.816 293.958 971.574 289.322 974.258 284.076L985.36 290.42C980.968 297.252 973.648 305.548 958.398 305.548C940.098 305.548 927.166 291.64 927.166 273.218ZM941.074 268.094H972.794C972.184 259.066 966.45 253.454 957.178 253.454C947.662 253.454 942.172 259.066 941.074 268.094Z" fill="white"/>
</svg>
