<svg width="46" height="53" viewBox="0 0 46 53" fill="none" xmlns="http://www.w3.org/2000/svg">
<mask id="mask0_618_427" style="mask-type:luminance" maskUnits="userSpaceOnUse" x="0" y="0" width="46" height="53">
<path d="M45.3294 0L0 0L0 52.6105H45.3294V0Z" fill="white"/>
</mask>
<g mask="url(#mask0_618_427)">
<path d="M30.6358 14.9006C30.6947 14.9105 30.6938 14.8283 30.7054 14.7855C31.3936 12.3218 31.7944 9.69752 32.4969 7.24458C34.3295 0.843549 43.5441 2.44225 43.2727 8.97717L38.8819 37.4957C37.2502 45.5784 31.4552 50.1558 23.3885 51.0306C15.9423 51.8385 6.80801 49.8256 3.08664 42.6765C2.0595 40.6378 1.52421 38.3869 1.52365 36.1041C1.41208 33.1111 1.35762 29.72 1.4808 26.7315C1.65933 22.3577 5.61635 19.2558 9.8715 20.8179C10.373 21.0268 10.8582 21.273 11.3229 21.5543C12.0165 20.1963 13.1836 19.1395 14.6035 18.5838C16.0235 18.028 17.5978 18.0117 19.029 18.5381L17.5436 7.78105C17.5296 6.42682 18.0011 5.11235 18.8729 4.07592C19.7446 3.03949 20.9589 2.34969 22.2955 2.13154C23.6321 1.91339 25.0027 2.18134 26.1587 2.88682C27.3148 3.5923 28.1798 4.68861 28.597 5.97705L30.6358 14.9006ZM36.5816 31.2937L40.0039 9.01109C40.0976 8.44691 39.9717 7.86826 39.652 7.39406C39.3322 6.91986 38.843 6.58613 38.2849 6.46145C37.7267 6.33676 37.142 6.4306 36.6509 6.72368C36.1598 7.01676 35.7996 7.4868 35.6443 8.03723L32.2202 22.4505C32.1397 22.7703 31.9639 23.0581 31.716 23.2756C31.4682 23.4931 31.16 23.6301 30.8324 23.6684C30.5049 23.7066 30.1734 23.6443 29.8821 23.4898C29.5908 23.3352 29.3533 23.0957 29.2013 22.8031C27.8347 17.4616 26.7261 12.0433 25.4157 6.68579C25.1911 6.18825 24.8042 5.7817 24.3184 5.53269C23.8326 5.28369 23.2767 5.20698 22.7416 5.31514C22.2065 5.4233 21.724 5.7099 21.373 6.12804C21.0221 6.54618 20.8235 7.07108 20.8098 7.61681C21.4908 12.4566 22.1255 17.3036 22.7994 22.1443C22.8744 22.6799 23.044 23.2824 23.0824 23.8037C23.1654 24.932 23.0217 26.1549 23.0824 27.2921C24.8328 27.3394 26.6002 27.2287 28.3489 27.2921C29.3329 27.3161 30.3101 27.4625 31.258 27.7277C33.3609 28.3374 35.2226 29.585 36.586 31.2982M13.9133 24.1331V30.1824C14.3762 29.4753 14.9753 28.8675 15.6757 28.3945C16.3761 27.9215 17.1638 27.5929 17.9926 27.4278C18.6095 27.3272 19.2342 27.2818 19.8591 27.2921C19.8225 26.428 19.9064 25.5274 19.8591 24.6678C19.8888 24.1863 19.8092 23.7043 19.6264 23.2579C19.4435 22.8115 19.1621 22.4122 18.8031 22.0899C18.3838 21.7386 17.8759 21.5093 17.335 21.427C16.7942 21.3448 16.2411 21.4128 15.7363 21.6235C15.2314 21.8343 14.7942 22.1798 14.4724 22.6222C14.1506 23.0646 13.9566 23.587 13.9115 24.1322M9.80545 24.5392C9.40176 24.1436 8.89405 23.8706 8.34135 23.7521C7.78865 23.6337 7.21367 23.6745 6.68327 23.8699C6.15286 24.0653 5.68882 24.4073 5.3451 24.856C5.00137 25.3047 4.79208 25.8418 4.74157 26.4048C4.85047 29.6941 4.59518 33.079 4.74157 36.3576C5.16914 46.0435 15.3067 48.7562 23.4234 47.7681C28.3007 47.1745 32.6031 44.8224 34.6464 40.2031C36.7351 35.4784 33.5877 30.7849 28.5506 30.552C25.2479 30.3993 21.8764 30.6216 18.5746 30.6136C18.1518 30.7013 17.7532 30.8802 17.4066 31.1377C17.06 31.3952 16.7737 31.7252 16.5676 32.1047C16.3616 32.4842 16.2407 32.904 16.2135 33.335C16.1863 33.7659 16.2533 34.1976 16.41 34.6C16.6072 35.0875 16.928 35.5152 17.3407 35.8411C17.7535 36.1669 18.2439 36.3797 18.7638 36.4585C20.8276 36.6424 23.1565 36.3228 25.2479 36.4585C25.6731 36.4394 26.089 36.5866 26.4075 36.869C26.7259 37.1514 26.9219 37.5467 26.9538 37.9711C26.9857 38.3955 26.8511 38.8157 26.5785 39.1426C26.3058 39.4694 25.9166 39.6772 25.4934 39.7219C23.3073 39.6327 21.0177 39.8478 18.8442 39.7219C17.502 39.6461 16.2202 39.1386 15.1898 38.2752C14.1594 37.4118 13.4355 36.2385 13.126 34.9303C12.8919 35.0624 12.6288 35.1351 12.3601 35.1419C12.0913 35.1487 11.8249 35.0895 11.5844 34.9694C11.3438 34.8493 11.1364 34.672 10.9803 34.453C10.8242 34.2341 10.7242 33.9802 10.6891 33.7137C10.6052 31.425 10.8061 29.0515 10.6891 26.7726C10.6962 26.3607 10.6218 25.9515 10.4701 25.5686C10.3185 25.1856 10.0926 24.8364 9.80545 24.541" fill="#FF6A46"/>
<path d="M23.2636 1.22382C24.6313 1.21099 25.9665 1.641 27.0697 2.4496C28.1729 3.25821 28.9849 4.40201 29.3844 5.71017L29.3977 5.74944L30.6769 11.3605L30.7661 10.9329C31.0446 9.63951 31.3339 8.30235 31.7016 7.01697C32.0307 5.67553 32.8038 4.48483 33.8952 3.6384C34.9867 2.79197 36.3323 2.33958 37.7135 2.35478C38.5875 2.3506 39.4534 2.52231 40.2598 2.85968C41.0661 3.19705 41.7963 3.69319 42.4069 4.31856C42.9968 4.94253 43.4513 5.68171 43.7419 6.4897C44.0326 7.29768 44.153 8.15702 44.0957 9.01377V9.0593L39.6978 37.6234C38.0357 45.8587 32.2774 50.8994 23.4769 51.8527C22.4159 51.9674 21.3495 52.0249 20.2822 52.025C11.9808 52.025 5.27539 48.6732 2.35114 43.0595C1.26561 40.9129 0.698775 38.5417 0.696211 36.1363C0.560531 32.4765 0.546253 29.3032 0.653368 26.6958C0.671745 24.8375 1.40905 23.0584 2.71063 21.7319C4.01222 20.4053 5.77693 19.6344 7.6346 19.5807C8.49633 19.5843 9.35062 19.7403 10.1581 20.0413C10.455 20.153 10.7435 20.286 11.0212 20.4394C11.6721 19.48 12.5474 18.694 13.5709 18.1496C14.5944 17.6052 15.7354 17.3187 16.8947 17.3152C17.2788 17.3149 17.6621 17.3469 18.0408 17.4107L16.7198 7.83105V7.77928C16.7019 6.91477 16.8589 6.05556 17.1812 5.25319C17.5035 4.45082 17.9846 3.72181 18.5955 3.10989C19.2064 2.49796 19.9347 2.01572 20.7365 1.69208C21.5383 1.36845 22.3973 1.21009 23.2618 1.2265M27.8035 6.20111C27.5111 5.22849 26.9095 4.37777 26.0898 3.77803C25.2702 3.17829 24.2773 2.86224 23.2618 2.87786C22.6179 2.85832 21.9767 2.97007 21.3773 3.2063C20.7779 3.44252 20.2329 3.79829 19.7754 4.25192C19.3179 4.70555 18.9576 5.24755 18.7163 5.84492C18.475 6.44229 18.3579 7.08251 18.372 7.72661L20.0403 19.8056L18.7389 19.3102C18.1507 19.0867 17.5266 18.9726 16.8974 18.9737C15.8982 18.9744 14.9185 19.2504 14.066 19.7715C13.2134 20.2925 12.521 21.0385 12.0647 21.9274L11.6818 22.6897L10.5838 22.089C10.2664 21.8984 9.93417 21.7336 9.59035 21.5962C8.96486 21.363 8.30306 21.2421 7.6355 21.2392C6.19852 21.2778 4.83428 21.8796 3.83704 22.9149C2.83979 23.9503 2.28945 25.3361 2.30473 26.7735C2.1985 29.3371 2.21546 32.4702 2.34757 36.0845C2.33777 38.2454 2.84135 40.3778 3.81684 42.3061C6.45009 47.3637 12.6047 50.3835 20.2796 50.3835C21.2871 50.3834 22.294 50.3292 23.2957 50.221C31.3213 49.3507 36.5682 44.776 38.0678 37.3431L42.4417 8.90845C42.4816 8.28141 42.3929 7.65284 42.1809 7.06138C41.9689 6.46992 41.6381 5.92806 41.209 5.46915C40.7525 5.00431 40.2071 4.63604 39.6054 4.38623C39.0037 4.13643 38.3578 4.0102 37.7063 4.01506C36.6836 3.99924 35.6864 4.33476 34.8813 4.96558C34.0761 5.5964 33.5118 6.48435 33.2825 7.48114C32.9254 8.71296 32.6469 10.0233 32.3738 11.29C32.106 12.52 31.8382 13.7893 31.4918 15.0167C31.4588 15.2192 31.3542 15.4031 31.1972 15.5351C31.0401 15.6671 30.841 15.7384 30.6358 15.7362H30.5689L30.4939 15.7246L29.9449 15.6353L27.8035 6.20111ZM23.2083 4.45424C23.8277 4.44954 24.4353 4.62397 24.9579 4.95653C25.4805 5.2891 25.8959 5.76563 26.1539 6.32876L26.1914 6.40731L26.212 6.49121C26.7895 8.85221 27.3367 11.2632 27.866 13.5938C28.5283 16.5145 29.2139 19.5343 29.9646 22.4773C30.0358 22.5917 30.1348 22.6863 30.2522 22.7525C30.3697 22.8186 30.5019 22.8541 30.6367 22.8557C30.8214 22.8498 30.999 22.783 31.1417 22.6656C31.2844 22.5482 31.3843 22.3869 31.4258 22.2068L34.8392 7.84979C35.0086 7.20085 35.3883 6.62633 35.9188 6.21597C36.4493 5.80562 37.1008 5.58256 37.7715 5.58163C38.1937 5.57985 38.6117 5.66527 38.9994 5.83254C39.3871 5.9998 39.7361 6.24532 40.0245 6.5537C40.3303 6.8934 40.5602 7.29444 40.6988 7.73006C40.8373 8.16568 40.8813 8.62585 40.8278 9.07983L37.11 33.2995L35.9336 31.8097C34.675 30.2332 32.9605 29.0839 31.0241 28.5186C30.1424 28.2717 29.2331 28.1364 28.3177 28.116C27.4197 28.0839 26.5172 28.099 25.6139 28.116C24.7605 28.1294 23.9063 28.1437 23.0574 28.116L22.296 28.0955L22.2558 27.3349C22.2237 26.761 22.2433 26.1745 22.2603 25.6086C22.29 25.027 22.29 24.4442 22.2603 23.8626C22.2301 23.5729 22.1827 23.2853 22.1184 23.0012C22.0675 22.7495 22.0166 22.4978 21.9836 22.2586C21.6753 20.0389 21.3724 17.8186 21.0749 15.5978C20.7178 12.9747 20.3581 10.3527 19.9957 7.73196L19.9859 7.66234V7.59182C19.9981 6.74774 20.3449 5.94303 20.9502 5.35454C21.5554 4.76604 22.3695 4.4419 23.2136 4.45335M24.6365 6.97413C24.5042 6.71085 24.3007 6.48991 24.0492 6.3364C23.7977 6.18288 23.5083 6.10293 23.2136 6.1056C23.0139 6.09796 22.8147 6.12984 22.6274 6.19939C22.4401 6.26894 22.2683 6.37481 22.122 6.51091C21.9757 6.64701 21.8578 6.81066 21.7749 6.99248C21.692 7.17429 21.6458 7.3707 21.639 7.5704V7.57754C22.0044 10.1763 22.3615 12.7759 22.7102 15.3764C23.0077 17.5949 23.3109 19.8128 23.6198 22.0301C23.6483 22.2372 23.693 22.4541 23.7376 22.6728C23.8168 23.0259 23.8737 23.3836 23.9081 23.7439C23.9436 24.3825 23.9463 25.0224 23.9161 25.6613C23.9072 25.9416 23.8992 26.2138 23.8965 26.4789C24.4615 26.4789 25.0266 26.4718 25.5925 26.4628C26.5235 26.4477 27.4545 26.4334 28.381 26.4628C29.4338 26.4877 30.4792 26.6448 31.4927 26.9306C33.1802 27.4258 34.7322 28.3002 36.03 29.4871L39.1934 8.88702C39.2174 8.66972 39.1964 8.44981 39.1317 8.24097C39.0671 8.03213 38.9602 7.83882 38.8176 7.67305C38.6841 7.53201 38.5229 7.42005 38.3441 7.34417C38.1654 7.2683 37.9728 7.23014 37.7786 7.2321C37.4702 7.2297 37.1701 7.33166 36.927 7.52143C36.6839 7.7112 36.5122 7.97762 36.4397 8.27736L33.0263 22.6406C32.908 23.1217 32.6466 23.5555 32.2768 23.885C31.9069 24.2145 31.4458 24.4242 30.9544 24.4864C30.4629 24.5485 29.9642 24.4603 29.5239 24.2332C29.0836 24.0062 28.7225 23.651 28.4881 23.2146L28.4319 23.1173L28.4042 23.0084C27.6357 20.0047 26.9368 16.9305 26.2619 13.958C25.7398 11.6622 25.2015 9.29049 24.6356 6.97145L24.6365 6.97413ZM16.9117 20.5599C17.8035 20.5589 18.6661 20.8782 19.3423 21.4597C19.7864 21.8548 20.1375 22.3435 20.3704 22.8904C20.6033 23.4374 20.7122 24.0291 20.6893 24.6231C20.7152 25.1016 20.7027 25.58 20.6893 26.046C20.6794 26.4521 20.6687 26.8583 20.6893 27.2564L20.7259 28.1178H19.8645C19.2886 28.1077 18.713 28.1487 18.1444 28.2401C17.4224 28.3849 16.7367 28.6728 16.1276 29.0867C15.5186 29.5006 14.9985 30.0322 14.598 30.6502L13.0921 32.8407L13.0921 24.134C13.1534 23.1637 13.5832 22.2535 14.2936 21.5897C15.004 20.9259 15.9412 20.5588 16.9135 20.5635M19.0334 26.4878C19.0334 26.3281 19.0397 26.1692 19.0433 26.0094C19.054 25.5738 19.0656 25.1391 19.0433 24.7151C19.0761 24.3467 19.0241 23.9757 18.8914 23.6305C18.7586 23.2853 18.5486 22.9751 18.2774 22.7236C17.8989 22.3956 17.4152 22.2144 16.9144 22.2131C16.3681 22.2086 15.8405 22.4111 15.4376 22.7799C15.0347 23.1488 14.7863 23.6565 14.7426 24.2009L14.7426 28.0642C15.6378 27.3273 16.7054 26.8294 17.8454 26.6173C18.2376 26.5487 18.6339 26.5051 19.0317 26.487M7.75153 22.8557C8.2439 22.8551 8.7315 22.9521 9.18611 23.1411C9.64072 23.3302 10.0533 23.6076 10.4 23.9573C11.1232 24.7001 11.5269 25.6966 11.5247 26.7333C11.5854 27.9589 11.5568 29.2157 11.5309 30.4315C11.5077 31.508 11.4827 32.6211 11.5211 33.686C11.5561 33.8671 11.6553 34.0294 11.8004 34.1432C11.9456 34.257 12.1269 34.3146 12.3111 34.3055C12.468 34.3046 12.6224 34.2667 12.7618 34.1948L13.6955 33.7244L13.9365 34.7411C14.2002 35.8787 14.8269 36.8996 15.7219 37.6496C16.6169 38.3997 17.7316 38.8382 18.8978 38.8989C20.0145 38.9623 21.1597 38.9328 22.3058 38.9043C23.368 38.8775 24.4312 38.8516 25.4711 38.8936C25.6629 38.8697 25.8386 38.7742 25.9629 38.6262C26.0873 38.4782 26.151 38.2886 26.1414 38.0956C26.1414 37.8688 26.0406 37.3359 25.2006 37.2815C24.2013 37.2358 23.2002 37.2406 22.2014 37.2958C21.5515 37.3199 20.9008 37.3431 20.2635 37.3431C19.677 37.3431 19.1647 37.3226 18.6969 37.2815C17.8079 37.1669 16.9882 36.741 16.3832 36.0795C15.7782 35.418 15.4271 34.5636 15.3921 33.6679C15.3571 32.7721 15.6405 31.893 16.1921 31.1863C16.7436 30.4796 17.5276 29.9912 18.405 29.8075L18.4943 29.7888H18.7576C19.9475 29.7888 21.1454 29.7602 22.346 29.7316C23.5644 29.7022 24.7846 29.6736 26.0013 29.6736C26.9528 29.6736 27.8017 29.6915 28.5971 29.7281C29.8878 29.7555 31.1518 30.1014 32.2766 30.735C33.4014 31.3687 34.3522 32.2705 35.0445 33.3602C35.6921 34.434 36.0643 35.6512 36.128 36.9036C36.1917 38.156 35.9449 39.4047 35.4096 40.5387C33.419 45.0402 29.2005 47.8993 23.5305 48.5893C22.4515 48.7201 21.3656 48.7857 20.2787 48.7857C8.62274 48.7857 4.18727 42.3846 3.92306 36.3951C3.84629 34.6527 3.88111 32.8657 3.91503 31.1375C3.94538 29.5853 3.97662 27.9785 3.92485 26.4334V26.387V26.3406C4.00194 25.3839 4.43955 24.4922 5.14915 23.8459C5.85875 23.1996 6.78735 22.8469 7.74707 22.8593M12.3048 35.9622C11.708 35.9672 11.1302 35.7525 10.6814 35.3592C10.2325 34.9658 9.94398 34.4211 9.87063 33.8288C9.82332 32.638 9.84832 31.5 9.87063 30.4002C9.89652 29.213 9.92419 27.9901 9.86617 26.8199C9.87879 26.5093 9.82835 26.1994 9.71789 25.9088C9.60743 25.6182 9.43924 25.353 9.22348 25.1293C9.03096 24.9324 8.80081 24.7762 8.54671 24.6701C8.29261 24.564 8.01976 24.5101 7.7444 24.5116C7.20754 24.5029 6.68684 24.6953 6.28453 25.0509C5.88221 25.4064 5.62734 25.8995 5.56995 26.4334C5.61994 28.0071 5.5887 29.6174 5.55835 31.1741C5.52621 32.8773 5.49141 34.6375 5.56549 36.3264C5.9163 44.2975 13.392 47.1379 20.2706 47.1379C21.2907 47.1378 22.3099 47.0761 23.3225 46.9531C28.3918 46.3363 32.1444 43.8218 33.8903 39.8737C34.3152 38.9848 34.5139 38.0047 34.4687 37.0205C34.4235 36.0363 34.136 35.0785 33.6315 34.2323C33.0789 33.3723 32.3225 32.6621 31.4295 32.1647C30.5364 31.6673 29.5343 31.3982 28.5123 31.3812C27.7428 31.3455 26.9171 31.3286 25.9915 31.3286C24.7882 31.3286 23.5814 31.358 22.3754 31.3866C21.1695 31.4151 19.9511 31.4446 18.7478 31.4446H18.6684C18.3787 31.5149 18.1069 31.6449 17.8704 31.8263C17.6338 32.0077 17.4377 32.2364 17.2946 32.4979C17.1448 32.7746 17.0572 33.0806 17.0378 33.3946C17.0184 33.7087 17.0676 34.0231 17.1821 34.3162C17.3244 34.6579 17.5504 34.9583 17.8393 35.1897C18.1282 35.421 18.4707 35.5759 18.8353 35.6399C19.2539 35.6774 19.7181 35.6953 20.2555 35.6953C20.8732 35.6953 21.5051 35.6721 22.13 35.6489C23.2011 35.6096 24.2776 35.5721 25.297 35.6373C25.9484 35.6376 26.5736 35.8934 27.0384 36.3497C27.5033 36.806 27.7706 37.4265 27.783 38.0777C27.8025 38.6958 27.5827 39.2976 27.1695 39.7577C26.7563 40.2179 26.1815 40.5008 25.5648 40.5476L25.5095 40.553H25.4541C24.4303 40.5092 23.3832 40.536 22.3362 40.5619C21.1436 40.5914 19.9528 40.6199 18.7924 40.5548C17.4169 40.4836 16.0929 40.0091 14.9853 39.1903C13.8778 38.3715 13.0359 37.2448 12.5646 35.9506C12.4756 35.9601 12.3862 35.9648 12.2968 35.9649L12.3048 35.9622Z" fill="white"/>
<path d="M9.8099 24.5366C10.097 24.8319 10.3229 25.1811 10.4746 25.5641C10.6263 25.9471 10.7007 26.3563 10.6936 26.7682C10.807 29.047 10.6043 31.4205 10.6936 33.7092C10.7287 33.9758 10.8287 34.2297 10.9848 34.4486C11.1408 34.6676 11.3483 34.8449 11.5888 34.965C11.8294 35.0851 12.0957 35.1443 12.3645 35.1375C12.6333 35.1307 12.8963 35.058 13.1305 34.9259C13.44 36.2341 14.1639 37.4073 15.1943 38.2708C16.2247 39.1342 17.5065 39.6416 18.8487 39.7175C21.0222 39.8407 23.3118 39.622 25.4978 39.7175C25.9211 39.6728 26.3103 39.465 26.5829 39.1381C26.8556 38.8113 26.9902 38.3911 26.9583 37.9667C26.9263 37.5423 26.7304 37.147 26.4119 36.8646C26.0935 36.5822 25.6775 36.435 25.2524 36.454C23.1609 36.3193 20.8321 36.6388 18.7683 36.454C18.2484 36.3753 17.7579 36.1625 17.3452 35.8366C16.9325 35.5108 16.6117 35.0831 16.4145 34.5956C16.2581 34.1933 16.1913 33.7618 16.2187 33.331C16.246 32.9003 16.367 32.4807 16.573 32.1014C16.779 31.7222 17.0652 31.3924 17.4117 31.135C17.7581 30.8775 18.1565 30.6987 18.5791 30.6109C21.8818 30.619 25.2497 30.3967 28.5551 30.5493C33.5922 30.7823 36.7405 35.4757 34.6508 40.2004C32.6085 44.8215 28.3051 47.1718 23.4278 47.7654C15.3112 48.7544 5.1736 46.0409 4.74603 36.355C4.60142 33.0764 4.85761 29.6915 4.74603 26.4022C4.79654 25.8392 5.00583 25.3021 5.34955 24.8534C5.69328 24.4046 6.15732 24.0627 6.68772 23.8673C7.21813 23.6718 7.79311 23.631 8.34581 23.7495C8.8985 23.868 9.40621 24.1409 9.8099 24.5366Z" fill="white"/>
<path d="M36.5825 31.2946C35.2191 29.5814 33.3573 28.3338 31.2544 27.7241C30.3065 27.4589 29.3293 27.3126 28.3453 27.2885C26.5967 27.2269 24.8284 27.3376 23.0788 27.2885C23.0181 26.1504 23.1618 24.9275 23.0788 23.7992C23.0404 23.2797 22.8708 22.6772 22.7959 22.1399C22.1219 17.2991 21.4882 12.4522 20.8062 7.61234C20.8199 7.06662 21.0185 6.54172 21.3695 6.12358C21.7204 5.70544 22.203 5.41883 22.738 5.31067C23.2731 5.20252 23.8291 5.27922 24.3149 5.52822C24.8007 5.77723 25.1875 6.18379 25.4122 6.68133C26.7225 12.0371 27.8312 17.458 29.1978 22.7986C29.3498 23.0913 29.5872 23.3308 29.8785 23.4853C30.1699 23.6399 30.5013 23.7022 30.8289 23.6639C31.1564 23.6257 31.4646 23.4887 31.7125 23.2711C31.9604 23.0536 32.1362 22.7658 32.2167 22.446L35.6452 8.03545C35.8005 7.48502 36.1607 7.01497 36.6518 6.7219C37.1429 6.42882 37.7276 6.33498 38.2858 6.45966C38.844 6.58434 39.3332 6.91808 39.6529 7.39228C39.9726 7.86648 40.0985 8.44513 40.0048 9.00931L36.5825 31.2946Z" fill="white"/>
<path d="M13.9124 24.1295C13.9575 23.5843 14.1515 23.062 14.4733 22.6195C14.7951 22.1771 15.2323 21.8317 15.7372 21.6209C16.242 21.4101 16.7951 21.3421 17.3359 21.4243C17.8768 21.5066 18.3847 21.7359 18.804 22.0872C19.1628 22.4096 19.4441 22.8089 19.627 23.2553C19.8098 23.7017 19.8895 24.1836 19.86 24.6651C19.9055 25.5247 19.8216 26.4262 19.86 27.2894C19.2351 27.279 18.6104 27.3244 17.9935 27.4251C17.1647 27.5902 16.377 27.9189 15.6766 28.3918C14.9762 28.8648 14.3771 29.4726 13.9142 30.1797L13.9124 24.1295Z" fill="white"/>
</g>
</svg>
