<svg width="99" height="93" viewBox="0 0 99 93" fill="none" xmlns="http://www.w3.org/2000/svg">
<path d="M3.24685 44.2484L3.6521 44.2761L3.53339 46.0033L3.25042 45.9837C2.17124 45.9096 1.65173 46.5657 1.57764 47.6449C1.51248 48.5893 1.9454 49.2016 2.59256 49.2462C3.48518 49.3069 3.70209 48.4822 4.03593 47.3664L4.07164 47.2468C4.63667 45.3339 5.40344 44.2341 7.11639 44.352C9.01858 44.4823 9.98261 46.039 9.84426 48.0501C9.68626 50.3567 8.34286 51.7563 6.13093 51.6037L5.83369 51.5831L5.95419 49.8291L6.19698 49.8461C6.46894 49.8853 6.74623 49.8627 7.00829 49.7802C7.27036 49.6976 7.51047 49.5571 7.71083 49.369C7.9112 49.181 8.06667 48.9503 8.16573 48.694C8.26479 48.4377 8.30489 48.1624 8.28306 47.8885C8.36161 46.7415 7.79122 46.1604 7.0905 46.1122C6.2675 46.056 5.94973 46.7371 5.59446 47.9617L5.55965 48.0814C4.99372 50.0076 4.23945 51.1216 2.52472 51.0038C0.838544 50.8887 -0.114782 49.3721 0.0110785 47.5378C0.149436 45.5142 1.35716 44.1199 3.24596 44.2493" fill="white"/>
<path d="M1.76508 37.9661L9.61395 38.3499L9.66304 38.1955L3.02101 34.0002L3.95023 31.0607L12.9747 33.9172L12.4534 35.5676L5.23383 33.2843L5.18474 33.4387L11.8134 37.5912L11.0225 40.0906L3.21203 39.6764L3.16294 39.8308L10.3825 42.1132L9.86032 43.7637L0.835857 40.9073L1.76508 37.9661Z" fill="white"/>
<path d="M7.98315 24.0813L17.4316 26.7592L16.4765 28.3302L14.3797 27.7206L12.6668 30.5395L14.1735 32.1203L13.2184 33.6913L6.49424 26.5307L7.98315 24.0813ZM12.7757 27.2323L8.55175 26.0094L8.46784 26.1477L11.4983 29.3344L12.7757 27.2323Z" fill="white"/>
<path d="M18.5331 20.2198L22.5178 21.282L21.1789 22.7334L17.4236 21.6426L16.3524 22.8031L18.9277 25.1766L17.7181 26.4887L10.7681 20.0859L13.5897 17.0242C13.8415 16.7124 14.1563 16.4573 14.5135 16.2756C14.8707 16.0938 15.2623 15.9896 15.6626 15.9697C16.0629 15.9499 16.4628 16.0147 16.8363 16.1601C17.2097 16.3056 17.5483 16.5282 17.8297 16.8135C18.3135 17.2191 18.6462 17.7761 18.7739 18.3943C18.9016 19.0126 18.8167 19.6558 18.5331 20.2198ZM15.159 21.706L16.6523 20.0859C16.781 19.9569 16.8822 19.8032 16.95 19.6341C17.0179 19.465 17.0508 19.284 17.047 19.1018C17.0431 18.9197 17.0025 18.7402 16.9276 18.5741C16.8527 18.408 16.745 18.2588 16.611 18.1353C16.477 18.0119 16.3195 17.9167 16.1479 17.8556C15.9762 17.7945 15.794 17.7687 15.6122 17.7797C15.4303 17.7907 15.2526 17.8384 15.0896 17.9198C14.9266 18.0011 14.7817 18.1146 14.6636 18.2533L13.1702 19.8717L15.159 21.706Z" fill="white"/>
<path d="M23.0007 9.14139L23.9647 10.4464L21.6555 12.1495L26.315 18.4568L24.8797 19.5173L20.2273 13.21L17.9181 14.9104L16.954 13.6054L23.0007 9.14139Z" fill="white"/>
<path d="M32.4724 12.6218C32.4872 12.9804 32.5457 13.3359 32.6464 13.6804C32.7357 13.8795 32.8348 13.9821 33.0463 13.8911C33.606 13.6518 33.9202 12.5316 33.9863 11.3123L34.2844 11.1846C34.2915 12.8146 33.8265 14.44 32.7205 14.9149C32.6146 14.9814 32.4949 15.0225 32.3705 15.0351C32.2462 15.0477 32.1206 15.0314 32.0035 14.9875C31.8865 14.9436 31.7812 14.8733 31.6957 14.7821C31.6103 14.6908 31.5471 14.5811 31.511 14.4615C31.3636 14.03 31.2841 13.5783 31.2753 13.1225L30.9406 8.22021L30.0087 8.6201L30.0016 8.22556C30.4943 7.99017 30.9067 7.61494 31.1875 7.14666C31.4683 6.67838 31.6051 6.13779 31.5806 5.59231L31.9903 5.41379L32.0876 7.25528L33.3061 6.73309L33.3516 7.18387L32.1332 7.70516L32.4724 12.6218Z" fill="white"/>
<path d="M38.9859 9.52524L39.2715 9.43597C39.0787 11.4408 38.3851 12.9029 37.1542 13.2698C36.1304 13.5751 35.244 13.0627 34.8619 11.78C34.2058 9.57701 35.177 5.97169 37.0828 5.40487C37.2399 5.3419 37.4087 5.31319 37.5778 5.32064C37.7469 5.3281 37.9125 5.37155 38.0634 5.44809C38.2144 5.52464 38.3473 5.63251 38.4533 5.76452C38.5592 5.89653 38.6358 6.04963 38.6779 6.21359C39.1108 7.665 37.646 9.42705 35.9384 10.2304C35.9678 10.5975 36.0335 10.9608 36.1348 11.315C36.3856 12.1576 36.8944 12.4432 37.4737 12.2701C38.2387 12.0416 38.7234 11.0204 38.9832 9.52077M35.9161 9.78856C37.1988 9.02536 38.1129 7.59627 37.754 6.39122C37.6425 6.01542 37.4729 5.82619 37.1488 5.92259C36.2285 6.19663 35.8492 8.14345 35.9161 9.78856Z" fill="white"/>
<path d="M40.1249 10.1215C39.741 7.74533 41.1246 4.52205 43.0705 4.20785C43.2346 4.17041 43.4048 4.16838 43.5697 4.20187C43.7347 4.23537 43.8906 4.30364 44.0271 4.40212C44.1636 4.5006 44.2775 4.62704 44.3613 4.77301C44.4451 4.91898 44.4968 5.08113 44.513 5.24865C44.6335 5.99578 44.3184 6.8411 43.7846 6.92769C43.7203 6.93921 43.6542 6.93745 43.5906 6.9225C43.5269 6.90756 43.467 6.87975 43.4145 6.84079C43.362 6.80183 43.318 6.75254 43.2853 6.69594C43.2525 6.63935 43.2317 6.57666 43.2241 6.51172C43.1348 5.96454 43.8489 5.82172 43.74 5.12726C43.7339 5.05859 43.7125 4.99217 43.6772 4.93293C43.642 4.87369 43.5939 4.82315 43.5364 4.78508C43.4789 4.747 43.4136 4.72236 43.3453 4.71298C43.2771 4.70361 43.2075 4.70974 43.1419 4.73093C41.8601 4.93802 41.1326 7.80871 41.4317 9.66359C41.5736 10.5446 41.9217 11.173 42.5492 11.0722C43.283 10.9534 43.8971 10.001 44.3059 8.72008L44.5996 8.67277C44.1586 10.6071 43.2901 11.8425 42.1422 12.0282C41.1139 12.1942 40.34 11.4703 40.1222 10.1215" fill="white"/>
<path d="M44.7986 11.2828L47.7291 1.75672C47.9603 0.996203 47.8345 0.727521 46.8874 0.742695L46.9632 0.430277C48.2611 0.409747 49.1511 0.274067 49.3635 3.05176e-05L49.5269 0.0892936L46.9668 8.23005H47.1025C48.4334 5.22011 49.493 3.85082 50.5748 3.83386C50.7063 3.82138 50.8389 3.83778 50.9633 3.88191C51.0878 3.92605 51.2011 3.99685 51.2953 4.08936C51.3895 4.18188 51.4623 4.29387 51.5087 4.41749C51.5551 4.54111 51.5739 4.67339 51.5638 4.80504C51.579 5.79229 50.6239 7.75071 49.9866 9.31995C49.8507 9.62893 49.7515 9.95279 49.6911 10.2849C49.6911 10.4875 49.75 10.5946 49.9393 10.5919C50.4391 10.5839 51.0336 9.72252 51.4648 8.72814L51.7754 8.72367C51.3086 9.93408 50.4516 11.3123 49.343 11.3319C48.6289 11.3435 48.3772 10.9695 48.3691 10.4822C48.4304 10.0647 48.5611 9.66042 48.7556 9.28603C49.3434 7.97923 49.8147 6.62313 50.1642 5.2335C50.1588 4.93626 50.0625 4.80236 49.8732 4.80593C49.3457 4.81486 47.9987 6.16094 46.1242 11.2623L44.7986 11.2828Z" fill="white"/>
<path d="M50.9658 12.6048C51.325 12.5623 51.6661 12.4238 51.9532 12.2039C52.2403 11.984 52.4629 11.6908 52.5975 11.3551C52.4476 11.4091 52.2875 11.4289 52.1289 11.4131C52.0465 11.406 51.9666 11.3818 51.8941 11.342C51.8216 11.3023 51.7581 11.2479 51.7078 11.1824C51.6574 11.1168 51.6212 11.0415 51.6015 10.9612C51.5818 10.8809 51.579 10.7974 51.5933 10.716C51.605 10.5955 51.6414 10.4787 51.7001 10.3728C51.7588 10.2669 51.8386 10.1742 51.9345 10.1004C52.0305 10.0266 52.1406 9.97324 52.2581 9.94371C52.3755 9.91419 52.4977 9.90908 52.6172 9.92871C53.0742 9.9778 53.4054 10.3134 53.3313 10.9722C53.1849 11.4864 52.889 11.9456 52.4812 12.2915C52.0734 12.6373 51.5721 12.8541 51.0408 12.9145L50.9658 12.6048Z" fill="white"/>
<path d="M67.2688 8.13808L67.1384 8.52191L65.5031 7.96669L65.5924 7.69891C65.9396 6.67417 65.4389 6.00292 64.4141 5.65747C63.5215 5.35398 62.8154 5.61462 62.6075 6.22964C62.3209 7.07496 63.0627 7.49717 64.0553 8.10416L64.1615 8.16932C65.8664 9.20388 66.7332 10.2224 66.1824 11.8523C65.5701 13.6581 63.8187 14.1919 61.9103 13.5483C59.7207 12.8056 58.712 11.1507 59.4234 9.05034L59.519 8.76827L61.1837 9.33241L61.1052 9.56271C60.9979 9.81559 60.9489 10.0894 60.9619 10.3637C60.9748 10.6381 61.0493 10.9061 61.1799 11.1477C61.3105 11.3894 61.4937 11.5986 61.7161 11.7598C61.9385 11.921 62.1943 12.0301 62.4646 12.079C63.5527 12.4477 64.2606 12.0451 64.4864 11.3801C64.7542 10.5991 64.1722 10.117 63.0805 9.46184L62.9743 9.39668C61.2569 8.35767 60.3723 7.34364 60.9213 5.71727C61.464 4.11679 63.1725 3.58211 64.914 4.17303C66.8349 4.82465 67.8748 6.34747 67.267 8.13986" fill="white"/>
<path d="M73.7403 8.32109L71.3454 15.8058L71.4819 15.895L77.2537 10.5607L79.8539 12.2174L74.7659 20.2011L73.3065 19.2709L77.3751 12.8842L77.2385 12.7949L71.5159 18.1284L69.3039 16.7189L71.7185 9.27799L71.5819 9.18873L67.5133 15.5755L66.0539 14.6454L71.1419 6.6617L73.7403 8.32109Z" fill="white"/>
<path d="M85.5426 17.9186L80.5144 26.353L79.2434 25.0239L80.3752 23.1565L78.0963 20.7723L76.1799 21.8194L74.9096 20.4903L83.5619 15.8486L85.5426 17.9186ZM81.258 21.7328L83.5324 17.9686L83.4208 17.8508L79.562 19.9547L81.258 21.7328Z" fill="white"/>
<path d="M86.5575 29.0988L84.5045 32.6782L83.4449 31.0126L85.4641 27.6616L84.6143 26.3227L81.6597 28.2026L80.7019 26.6967L88.6775 21.6239L90.9091 25.1382C91.1458 25.4616 91.3115 25.8314 91.3954 26.2233C91.4793 26.6152 91.4795 27.0204 91.396 27.4124C91.3125 27.8044 91.1472 28.1743 90.9109 28.498C90.6745 28.8217 90.3725 29.0918 90.0245 29.2907C89.5082 29.654 88.8844 29.8325 88.2541 29.7971C87.6237 29.7618 87.0238 29.5148 86.5513 29.0961M85.9809 25.4524L87.1636 27.3117C87.2542 27.4713 87.3763 27.6108 87.5225 27.7218C87.6687 27.8327 87.8359 27.9128 88.014 27.9572C88.1921 28.0015 88.3774 28.0092 88.5585 27.9797C88.7397 27.9503 88.9129 27.8843 89.0678 27.7858C89.2227 27.6873 89.3559 27.5584 89.4594 27.4068C89.5629 27.2553 89.6345 27.0843 89.6699 26.9042C89.7053 26.7241 89.7037 26.5387 89.6652 26.3593C89.6267 26.1798 89.5522 26.0101 89.4461 25.8603L88.2633 24.001L85.9809 25.4524Z" fill="white"/>
<path d="M96.1184 36.2568L94.6099 36.8539L93.5539 34.1894L86.2647 37.0789L85.6068 35.4195L92.8961 32.5309L91.8401 29.8664L93.3477 29.2693L96.1184 36.2568Z" fill="white"/>
<path d="M97.8832 44.4885L96.2916 44.8045L95.4276 40.4548L93.2129 40.8939L94.0029 44.8724L92.4114 45.1884L91.6214 41.2099L89.3273 41.6652L90.2066 46.0944L88.615 46.4104L87.3877 40.2307L96.671 38.3883L97.8832 44.4885Z" fill="white"/>
<path d="M92.3748 52.3008L88.7355 54.2423L88.7239 52.2678L92.2159 50.503L92.2061 48.9213L88.7043 48.9418L88.6936 47.1566L98.1456 47.1004L98.1706 51.2654C98.1992 51.6652 98.1431 52.0665 98.0058 52.4432C97.8686 52.8198 97.6533 53.1631 97.3741 53.4507C97.0949 53.7384 96.7581 53.9638 96.3857 54.1122C96.0133 54.2606 95.6138 54.3286 95.2133 54.3119C94.583 54.3452 93.9598 54.1647 93.4448 53.7997C92.9298 53.4347 92.5531 52.9066 92.3757 52.3008M93.8298 48.9088L93.8432 51.1127C93.8349 51.2962 93.864 51.4794 93.9287 51.6512C93.9935 51.8231 94.0926 51.9799 94.2198 52.1123C94.3471 52.2447 94.5 52.3498 94.6692 52.4212C94.8384 52.4926 95.0203 52.5289 95.2039 52.5278C95.3875 52.5267 95.5691 52.4883 95.7374 52.4149C95.9057 52.3414 96.0573 52.2345 96.183 52.1007C96.3087 51.9668 96.4059 51.8087 96.4686 51.6361C96.5313 51.4635 96.5583 51.28 96.5478 51.0967L96.5344 48.8927L93.8298 48.9088Z" fill="white"/>
<path d="M96.122 64.8235C96.0158 65.2059 95.8349 65.5635 95.5896 65.8755C95.3443 66.1876 95.0396 66.4479 94.6931 66.6414C94.3465 66.8349 93.9651 66.9578 93.5707 67.0029C93.1764 67.048 92.777 67.0145 92.3957 66.9043C92.0144 66.794 91.6588 66.6093 91.3494 66.3607C91.04 66.1121 90.7829 65.8046 90.5931 65.456C90.4033 65.1075 90.2845 64.7247 90.2436 64.3299C90.2027 63.9351 90.2405 63.5361 90.3547 63.156L90.9412 61.1298L87.6162 60.1684L88.1116 58.4546L97.2039 61.0834L96.122 64.8235ZM92.4997 61.5806L91.9642 63.4381C91.9059 63.6143 91.8837 63.8005 91.8991 63.9854C91.9144 64.1704 91.9669 64.3504 92.0534 64.5146C92.1399 64.6788 92.2586 64.8239 92.4025 64.9411C92.5464 65.0584 92.7124 65.1454 92.8907 65.197C93.069 65.2486 93.2559 65.2637 93.4401 65.2414C93.6244 65.2191 93.8022 65.1599 93.9631 65.0673C94.1239 64.9747 94.2644 64.8505 94.3761 64.7024C94.4879 64.5542 94.5686 64.385 94.6135 64.2049L95.149 62.3473L92.4997 61.5806Z" fill="white"/>
<path d="M86.9262 71.8646L82.8031 71.9377L83.6904 70.1748L87.6028 70.1918L88.3169 68.7787L85.1927 67.2042L85.9961 65.6099L94.4367 69.8597L92.5622 73.5793C92.4058 73.948 92.1733 74.2795 91.8799 74.5522C91.5865 74.8248 91.2389 75.0325 90.8597 75.1616C90.4806 75.2907 90.0784 75.3383 89.6796 75.3012C89.2808 75.2642 88.8943 75.1434 88.5454 74.9468C87.9687 74.6898 87.4958 74.2455 87.2032 73.6861C86.9106 73.1267 86.8155 72.4848 86.9333 71.8646M89.7701 69.508L88.7793 71.4718C88.6892 71.6313 88.6324 71.8073 88.6124 71.9894C88.5923 72.1714 88.6095 72.3557 88.6627 72.5309C88.716 72.7061 88.8043 72.8687 88.9222 73.0088C89.0402 73.149 89.1853 73.2637 89.3489 73.346C89.5125 73.4284 89.6911 73.4767 89.8739 73.488C90.0567 73.4993 90.2399 73.4734 90.4124 73.4119C90.5849 73.3503 90.7431 73.2543 90.8774 73.1298C91.0117 73.0053 91.1194 72.8549 91.1938 72.6875L92.1846 70.7238L89.7701 69.508Z" fill="white"/>
<path d="M82.155 72.6414L81.1366 74.1077L88.9109 79.5072L89.9293 78.0409L82.155 72.6414Z" fill="white"/>
<path d="M85.1632 84.3515C83.535 86.1064 81.6534 86.1859 80.1074 84.7514L79.8699 84.5309L81.0839 83.2223L81.3419 83.4616C81.5171 83.6461 81.7311 83.7893 81.9684 83.881C82.2057 83.9728 82.4604 84.0107 82.7142 83.992C82.9679 83.9733 83.2143 83.8984 83.4356 83.7729C83.6569 83.6474 83.8476 83.4743 83.9939 83.2661C84.1962 83.0642 84.3543 82.8224 84.458 82.5561C84.5617 82.2898 84.6089 82.0048 84.5963 81.7193C84.5838 81.4338 84.512 81.154 84.3853 80.8978C84.2587 80.6415 84.0801 80.4145 83.8609 80.2312L82.156 78.6503C81.9637 78.4335 81.7261 78.2616 81.4601 78.1469C81.194 78.0321 80.9059 77.9773 80.6163 77.9864C80.3267 77.9954 80.0426 78.068 79.7842 78.1991C79.5258 78.3302 79.2994 78.5166 79.121 78.7449C78.9157 78.9006 78.7493 79.1017 78.6347 79.3324C78.5201 79.5632 78.4604 79.8173 78.4604 80.0749C78.4604 80.3326 78.5201 80.5867 78.6347 80.8175C78.7493 81.0482 78.9157 81.2493 79.121 81.4049L79.379 81.6442L78.165 82.9528L77.9276 82.7323C76.3914 81.3041 76.2468 79.4947 77.9481 77.6613C79.5299 75.9563 81.5856 75.6877 83.4297 77.3979L85.0159 78.869C85.4197 79.1982 85.7477 79.6106 85.9776 80.0781C86.2074 80.5457 86.3337 81.0573 86.3477 81.5781C86.3618 82.0989 86.2633 82.6165 86.0591 83.0958C85.8548 83.575 85.5495 84.0046 85.1641 84.3551" fill="white"/>
<path d="M75.5407 92.2441L74.5802 90.9364L78.1507 88.3112L76.8118 86.492L73.543 88.8932L72.5825 87.5855L75.8513 85.1852L74.4669 83.3L70.8276 85.9725L69.8743 84.6648L74.9516 80.9354L80.5528 88.5584L75.5407 92.2441Z" fill="white"/>
<path d="M69.2164 87.6284C68.9934 87.7501 68.7393 87.8029 68.4863 87.7802C68.2332 87.7575 67.9926 87.6603 67.7948 87.5008C67.597 87.3413 67.451 87.1267 67.3751 86.8842C67.2993 86.6418 67.2971 86.3822 67.3687 86.1385C67.4404 85.8947 67.5828 85.6777 67.7778 85.5149C67.9728 85.352 68.2118 85.2507 68.4644 85.2236C68.717 85.1966 68.972 85.2451 69.197 85.363C69.4221 85.4809 69.6072 85.6629 69.7288 85.886C69.8153 86.0326 69.8707 86.1955 69.8917 86.3645C69.9126 86.5334 69.8987 86.7049 69.8506 86.8683C69.8026 87.0317 69.7215 87.1834 69.6124 87.3142C69.5033 87.4449 69.3685 87.5518 69.2164 87.6284Z" fill="white"/>
</svg>
