<svg width="117" height="27" viewBox="0 0 117 27" fill="none" xmlns="http://www.w3.org/2000/svg">
<path d="M7.74186 11.7355L5.06793 10.2226L2.37334 11.7355C0.855657 12.579 0 14.2641 0 16.447V25.5028H10.1154V16.447C10.1154 14.2641 9.28131 12.5785 7.74168 11.7355M13.6227 2.39857C12.7888 0.842974 11.121 -0.000705719 8.9608 -0.000705719H0.0387243V10.2008H8.9608C11.1208 10.2008 12.7888 9.35805 13.6228 7.82351L15.1199 5.10014L13.6227 2.39857ZM16.2745 15.2798C14.1573 15.2798 12.4465 16.1442 11.6124 17.6787L10.1371 20.3811L11.6124 23.1042C12.4465 24.6172 14.1573 25.5033 16.2745 25.5033L25.2386 25.5018V15.2783L16.2745 15.2798ZM15.1413 -0.000705719V9.05558C15.1413 11.1951 15.9966 12.9242 17.4936 13.7669L20.1882 15.2798L22.8828 13.7669C24.3796 12.924 25.2351 11.1951 25.2351 9.05558V-0.000705719H15.1413Z" fill="white"/>
<path d="M47.4805 15.0289L50.8596 21.5219C50.8756 21.5526 50.8834 21.5868 50.8824 21.6214C50.8814 21.656 50.8716 21.6897 50.8539 21.7193C50.8362 21.749 50.8113 21.7735 50.7814 21.7905C50.7516 21.8075 50.718 21.8164 50.6837 21.8164H47.3906C47.3535 21.8164 47.3173 21.8059 47.2858 21.7861C47.2544 21.7664 47.229 21.7381 47.2126 21.7046L44.0137 15.214C43.9972 15.1805 43.9719 15.1522 43.9404 15.1325C43.909 15.1127 43.8727 15.1022 43.8357 15.1022H41.1572C41.1044 15.1022 41.0539 15.1234 41.0166 15.161C40.9793 15.1987 40.9584 15.2498 40.9584 15.3031V21.6149C40.9584 21.6682 40.9374 21.7193 40.9001 21.757C40.8629 21.7947 40.8123 21.8158 40.7596 21.8158H37.7721C37.7194 21.8158 37.6689 21.7947 37.6316 21.757C37.5943 21.7193 37.5733 21.6682 37.5733 21.6149V3.89896C37.5733 3.84571 37.5942 3.79462 37.6314 3.75692C37.6686 3.71921 37.7191 3.69797 37.7718 3.69788H45.4725C48.8579 3.69788 51.2178 5.95291 51.2178 9.40068C51.2178 12.0592 49.7763 13.9901 47.5905 14.746C47.5634 14.7554 47.5387 14.7707 47.5181 14.7906C47.4974 14.8106 47.4813 14.8348 47.4708 14.8617C47.4602 14.8885 47.4556 14.9174 47.4572 14.9462C47.4587 14.9751 47.4665 15.0032 47.4798 15.0288M40.9584 11.7918C40.9584 11.845 40.9793 11.8961 41.0166 11.9338C41.0539 11.9715 41.1044 11.9927 41.1572 11.9927H45.1385C46.754 11.9927 47.8309 10.9816 47.8309 9.40087C47.8309 7.82011 46.7532 6.80796 45.1385 6.80796H41.1572C41.1044 6.80796 41.0539 6.82912 41.0166 6.8668C40.9793 6.90448 40.9584 6.95558 40.9584 7.00886V11.7918Z" fill="white"/>
<path d="M58.0072 8.5967C61.7005 8.5967 64.1878 11.2148 64.1878 15.0772V16.1458C64.1878 16.1991 64.1669 16.2502 64.1296 16.2879C64.0923 16.3256 64.0417 16.3467 63.989 16.3467H55.1503C55.122 16.3467 55.0939 16.3528 55.0681 16.3646C55.0423 16.3764 55.0192 16.3936 55.0005 16.4151C54.9818 16.4366 54.9678 16.4619 54.9595 16.4893C54.9512 16.5167 54.9488 16.5455 54.9524 16.5739C55.1663 18.1729 56.3449 19.3797 58.1093 19.3797C59.7841 19.3797 60.7226 18.4996 61.1952 17.6465C61.208 17.623 61.2253 17.6023 61.2461 17.5856C61.2669 17.5689 61.2907 17.5566 61.3163 17.5494C61.3419 17.5422 61.3686 17.5402 61.3949 17.5435C61.4212 17.5469 61.4466 17.5555 61.4696 17.5689L63.7493 18.9108C63.7728 18.9246 63.7933 18.9432 63.8095 18.9654C63.8256 18.9875 63.8371 19.0128 63.8432 19.0397C63.8493 19.0665 63.8498 19.0943 63.8449 19.1214C63.8399 19.1485 63.8294 19.1742 63.8142 19.197C62.9265 20.5202 61.423 22.1808 58.1606 22.1808C54.3647 22.1808 51.6205 19.2777 51.6205 15.2852C51.6205 11.3974 54.2624 8.59782 58.007 8.59782M60.6685 14.0675C60.6979 14.0675 60.727 14.0609 60.7536 14.0482C60.7802 14.0356 60.8036 14.0171 60.8223 13.9942C60.841 13.9713 60.8545 13.9444 60.8617 13.9156C60.869 13.8868 60.8698 13.8568 60.8642 13.8276C60.5701 12.3332 59.5654 11.3976 57.981 11.3976C56.2547 11.3976 55.3118 12.3762 55.0004 13.8246C54.9944 13.8539 54.9949 13.8842 55.0019 13.9132C55.0089 13.9423 55.0222 13.9694 55.0408 13.9926C55.0595 14.0158 55.0831 14.0345 55.1098 14.0474C55.1365 14.0602 55.1657 14.0669 55.1953 14.0669L60.6685 14.0675Z" fill="white"/>
<path d="M71.2592 8.5967C73.7985 8.5967 75.6112 9.69477 77.2877 11.4183C77.3072 11.4384 77.3223 11.4625 77.3319 11.489C77.3416 11.5154 77.3457 11.5436 77.3438 11.5717C77.342 11.5999 77.3343 11.6273 77.3213 11.6522C77.3083 11.6772 77.2903 11.6991 77.2683 11.7165L75.2555 13.3256C75.2155 13.3573 75.1649 13.3723 75.1143 13.3674C75.0637 13.3625 75.0168 13.3381 74.9835 13.2993C74.0246 12.1936 72.7791 11.2409 71.1568 11.2409C69.9519 11.2409 69.2845 11.7601 69.2845 12.5378C69.2845 13.4707 70.2338 13.7039 71.5673 13.8591L72.0038 13.9107C76.0815 14.4035 77.5945 15.4663 77.5945 17.8244C77.5945 20.3393 75.2608 22.1796 71.8755 22.1796C68.4742 22.1796 66.5387 20.479 65.3474 18.7248C65.3321 18.7024 65.3215 18.6772 65.3161 18.6506C65.3107 18.624 65.3107 18.5966 65.3161 18.57C65.3215 18.5434 65.3321 18.5182 65.3474 18.4958C65.3626 18.4735 65.3822 18.4545 65.4049 18.44L67.6123 17.0348C67.6353 17.0202 67.661 17.0105 67.6878 17.0063C67.7147 17.0022 67.7421 17.0036 67.7684 17.0106C67.7946 17.0176 67.8192 17.03 67.8405 17.047C67.8619 17.064 67.8795 17.0852 67.8924 17.1094C68.7245 18.6689 70.374 19.4833 71.952 19.4833C73.2595 19.4833 74.4655 18.9134 74.4655 17.9023C74.4655 16.9431 73.1571 16.7616 71.7731 16.6065L71.3366 16.5549C67.7716 16.1403 66.1547 14.974 66.1547 12.589C66.1547 10.2041 68.3099 8.59689 71.2588 8.59689" fill="white"/>
<path d="M79.5037 8.95974H82.2857C82.3385 8.95974 82.389 8.98091 82.4263 9.01859C82.4636 9.05626 82.4845 9.10736 82.4845 9.16065V10.5727C82.4846 10.626 82.5056 10.6771 82.5429 10.7148C82.5802 10.7525 82.6308 10.7736 82.6835 10.7736H82.7346C82.768 10.7736 82.8009 10.765 82.8302 10.7487C82.8595 10.7324 82.8842 10.709 82.9022 10.6805C83.5764 9.62433 84.7033 8.59652 86.8965 8.59652C90.0772 8.59652 92.7439 11.4479 92.7439 15.3873C92.7439 19.3267 90.0772 22.1793 86.8965 22.1793C84.7032 22.1793 83.5772 21.1515 82.9022 20.0953C82.8791 20.0587 82.8449 20.0306 82.8046 20.0153C82.7644 20 82.7203 19.9983 82.6791 20.0104C82.6378 20.0225 82.6015 20.0479 82.5757 20.0826C82.5498 20.1173 82.5358 20.1596 82.5358 20.203V26.7989C82.5358 26.8522 82.5149 26.9033 82.4776 26.941C82.4403 26.9786 82.3897 26.9998 82.337 26.9998H79.5037C79.451 26.9998 79.4004 26.9786 79.3632 26.941C79.3259 26.9033 79.3049 26.8522 79.3049 26.7989V9.16065C79.3049 9.10736 79.3259 9.05626 79.3632 9.01859C79.4004 8.98091 79.451 8.95974 79.5037 8.95974ZM89.5122 15.3875C89.5122 12.8992 87.974 11.4997 86.0245 11.4997C84.0238 11.4997 82.5358 12.9519 82.5358 15.3875C82.5358 17.8231 84.0238 19.2762 86.0245 19.2762C87.9742 19.2762 89.5122 17.8759 89.5122 15.3875Z" fill="white"/>
<path d="M97.834 10.8266H97.8556C97.8953 10.8268 97.9341 10.8148 97.967 10.7924C97.9999 10.7699 98.0254 10.7379 98.04 10.7006C98.5471 9.3718 99.6075 8.90831 101.175 8.90831H102.208C102.234 8.90828 102.26 8.91346 102.284 8.92354C102.308 8.93363 102.33 8.94843 102.348 8.96708C102.367 8.98574 102.381 9.0079 102.391 9.03228C102.401 9.05667 102.407 9.08281 102.407 9.10921V11.6624C102.407 11.6888 102.401 11.715 102.391 11.7394C102.381 11.7637 102.367 11.7859 102.348 11.8046C102.33 11.8232 102.308 11.838 102.284 11.8481C102.26 11.8582 102.234 11.8634 102.208 11.8633H100.508C98.8669 11.8633 97.6867 12.7445 97.6867 14.5586V21.6155C97.6867 21.6688 97.6657 21.7199 97.6284 21.7576C97.5911 21.7952 97.5406 21.8164 97.4879 21.8164H94.6537C94.601 21.8164 94.5504 21.7952 94.5131 21.7576C94.4758 21.7199 94.4549 21.6688 94.4549 21.6155V9.16065C94.4549 9.10736 94.4758 9.05626 94.5131 9.01859C94.5504 8.98091 94.601 8.95974 94.6537 8.95974H97.4366C97.4627 8.95972 97.4886 8.9649 97.5127 8.97499C97.5368 8.98507 97.5587 8.99987 97.5772 9.01853C97.5957 9.03719 97.6103 9.05935 97.6203 9.08373C97.6303 9.10812 97.6354 9.13426 97.6354 9.16065V10.6255C97.6354 10.6519 97.6405 10.678 97.6505 10.7024C97.6605 10.7268 97.6752 10.749 97.6937 10.7676C97.7122 10.7863 97.7341 10.8011 97.7582 10.8111C97.7824 10.8212 97.8082 10.8264 97.8344 10.8264" fill="white"/>
<path d="M111.685 13.9583L116.926 21.5C116.947 21.5301 116.959 21.5654 116.962 21.6022C116.964 21.6389 116.957 21.6757 116.94 21.7084C116.923 21.7411 116.898 21.7685 116.866 21.7876C116.835 21.8067 116.799 21.8168 116.763 21.8168H113.506C113.473 21.8168 113.442 21.8089 113.413 21.7936C113.384 21.7784 113.36 21.7563 113.342 21.7294L109.42 15.9334C109.404 15.9103 109.384 15.8907 109.361 15.876C109.337 15.8613 109.311 15.8516 109.284 15.8478C109.256 15.8439 109.228 15.8458 109.202 15.8535C109.175 15.8611 109.15 15.8743 109.129 15.8922L107.419 17.3248C107.397 17.3436 107.379 17.3673 107.366 17.394C107.354 17.4208 107.347 17.4499 107.347 17.4795V21.6168C107.347 21.6701 107.327 21.7212 107.289 21.7589C107.252 21.7965 107.201 21.8177 107.149 21.8177H104.316C104.263 21.8177 104.212 21.7965 104.175 21.7589C104.138 21.7212 104.117 21.6701 104.117 21.6168V3.87474C104.117 3.82146 104.138 3.77036 104.175 3.73268C104.212 3.695 104.263 3.67384 104.316 3.67384H107.149C107.201 3.67384 107.252 3.695 107.289 3.73268C107.327 3.77036 107.347 3.82146 107.347 3.87474V13.1657C107.347 13.2189 107.368 13.27 107.406 13.3077C107.443 13.3454 107.494 13.3666 107.546 13.3666H107.583C107.63 13.3666 107.675 13.3499 107.711 13.3194L112.783 9.00689C112.818 8.97644 112.864 8.95974 112.911 8.95974H116.802C116.843 8.9597 116.883 8.97242 116.916 8.99616C116.95 9.0199 116.975 9.05352 116.989 9.09241C117.003 9.1313 117.005 9.17358 116.994 9.21348C116.983 9.25337 116.96 9.28894 116.929 9.31533L111.722 13.6884C111.683 13.7207 111.658 13.7664 111.652 13.8164C111.645 13.8664 111.657 13.9172 111.686 13.9585" fill="white"/>
</svg>
