<svg width="424" height="192" viewBox="0 0 424 192" fill="none" xmlns="http://www.w3.org/2000/svg">
<rect width="424" height="192" rx="10" fill="#8F97FA" fill-opacity="0.39"/>
<path d="M51.604 123.2H59.164V149.444H65.644V153.494H59.164V161H54.736V153.494H35.188V149.606L51.604 123.2ZM54.088 126.872L40.102 149.444H54.736V126.872H54.088ZM68.9747 123.2H93.7607V127.25H73.3487V140.588H73.9967C75.4007 137.996 77.8847 135.566 83.2307 135.566C89.7647 135.566 94.7867 140.534 94.7867 148.202C94.7867 155.978 89.4407 161.756 81.2867 161.756C73.1327 161.756 67.5707 156.626 67.5707 148.634V147.662H71.9447V148.472C71.9447 154.304 75.5087 157.706 81.2867 157.706C87.0107 157.706 90.3047 154.034 90.3047 148.202C90.3047 142.748 87.1187 139.508 82.3667 139.508C78.3707 139.508 76.5887 141.776 75.7247 143.396H68.9747V123.2ZM98.7215 131.084C98.7215 125.738 101.908 122.444 107.362 122.444C112.654 122.444 116.002 125.738 116.002 131.084V132.11C116.002 137.456 112.816 140.696 107.362 140.696C101.908 140.696 98.7215 137.456 98.7215 132.11V131.084ZM119.404 136.16L128.962 122.714L132.364 125.198L121.834 137.996L119.404 136.16ZM102.34 130.814V132.326C102.34 135.458 104.068 137.51 107.362 137.51C110.656 137.51 112.33 135.458 112.33 132.326V130.814C112.33 127.682 110.656 125.63 107.362 125.63C104.068 125.63 102.34 127.682 102.34 130.814ZM117.622 152.144C117.622 146.798 120.808 143.504 126.262 143.504C131.554 143.504 134.902 146.798 134.902 152.144V153.17C134.902 158.516 131.716 161.756 126.262 161.756C120.808 161.756 117.622 158.516 117.622 153.17V152.144ZM114.22 148.04L104.662 161.486L101.26 159.002L111.79 146.204L114.22 148.04ZM121.294 151.874V153.386C121.294 156.518 122.968 158.57 126.262 158.57C129.556 158.57 131.284 156.518 131.284 153.386V151.874C131.284 148.742 129.556 146.69 126.262 146.69C122.968 146.69 121.294 148.742 121.294 151.874Z" fill="#151416"/>
<path d="M38.96 32H41.5L46.1 46H44.34L43.22 42.46H37.24L36.12 46H34.36L38.96 32ZM37.7 40.98H42.74L40.34 33.48H40.1L37.7 40.98ZM46.0531 36.24H47.7131L50.7731 44.5H51.0131L54.0731 36.24H55.7331L51.9731 46H49.8131L46.0531 36.24ZM56.5014 41.04C56.5014 38.18 58.5414 35.94 61.3614 35.94C64.1614 35.94 66.0814 37.92 66.0814 40.8V41.62H58.1014C58.2214 43.66 59.5814 44.92 61.5414 44.92C63.1414 44.92 64.0214 44.1 64.5614 42.98L65.9014 43.68C65.2014 44.94 64.0014 46.28 61.5614 46.28C58.5214 46.28 56.5014 44 56.5014 41.04ZM58.1014 40.36H64.4814C64.4414 38.42 63.2214 37.3 61.3614 37.3C59.5214 37.3 58.2814 38.44 58.1014 40.36ZM69.4123 36.24V37.7H69.6923C70.0523 36.72 70.8123 36.2 72.2123 36.2H73.4323V37.68H71.7523C70.3123 37.68 69.4723 38.5 69.4723 40.12V46H67.9523V36.24H69.4123ZM74.477 38.9C75.197 37.38 76.757 35.96 79.197 35.96C81.837 35.96 83.437 37.5 83.437 39.84V46H81.937V44.36H81.657C81.177 45.3 80.077 46.28 77.977 46.28C75.857 46.28 74.337 45.16 74.337 43.4C74.337 41.62 75.797 40.72 78.057 40.5L81.917 40.14V39.76C81.917 38.28 80.917 37.34 79.157 37.34C77.397 37.34 76.377 38.24 75.817 39.52L74.477 38.9ZM75.877 43.36C75.877 44.42 76.817 44.98 78.177 44.98C80.537 44.98 81.917 43.6 81.917 41.58V41.38L78.257 41.72C76.897 41.84 75.877 42.26 75.877 43.36ZM93.7419 36.24H95.2219V45.64C95.2219 48.3 93.4019 50.28 90.4819 50.28C87.8819 50.28 86.4019 49.02 85.4619 47.56L86.8619 46.78C87.4419 47.9 88.5619 48.9 90.3819 48.9C92.3219 48.9 93.7019 47.78 93.7019 45.54V44.12H93.4619C92.9019 45.1 91.9219 46.08 89.9019 46.08C87.3019 46.08 85.2819 44.04 85.2819 41.02C85.2819 38 87.3019 35.96 89.9019 35.96C91.9219 35.96 92.9019 36.94 93.4619 37.92H93.7419V36.24ZM90.2619 44.68C92.3219 44.68 93.7019 43.28 93.7019 41.02C93.7019 38.76 92.3219 37.34 90.2619 37.34C88.2419 37.34 86.8219 38.7 86.8219 41.02C86.8219 43.34 88.2419 44.68 90.2619 44.68ZM97.1866 41.04C97.1866 38.18 99.2266 35.94 102.047 35.94C104.847 35.94 106.767 37.92 106.767 40.8V41.62H98.7866C98.9066 43.66 100.267 44.92 102.227 44.92C103.827 44.92 104.707 44.1 105.247 42.98L106.587 43.68C105.887 44.94 104.687 46.28 102.247 46.28C99.2066 46.28 97.1866 44 97.1866 41.04ZM98.7866 40.36H105.167C105.127 38.42 103.907 37.3 102.047 37.3C100.207 37.3 98.9666 38.44 98.7866 40.36ZM119.028 31.72C121.888 31.72 124.088 33.22 124.088 36.02V36.76H122.448V36.14C122.448 34.18 120.948 33.2 119.028 33.2C117.348 33.2 116.028 34.08 116.028 35.5C116.028 36.96 117.008 37.5 118.988 37.96L120.088 38.22C122.568 38.76 124.128 39.84 124.128 42.18C124.128 44.7 122.048 46.28 119.208 46.28C115.808 46.28 113.748 44.34 113.748 41.16V40.56H115.388V41.04C115.388 43.54 116.808 44.8 119.228 44.8C121.268 44.8 122.488 43.7 122.488 42.22C122.488 40.74 121.448 40.12 119.608 39.72L118.488 39.46C116.088 38.92 114.388 38 114.388 35.52C114.388 33.22 116.428 31.72 119.028 31.72ZM125.856 38.9C126.576 37.38 128.136 35.96 130.576 35.96C133.216 35.96 134.816 37.5 134.816 39.84V46H133.316V44.36H133.036C132.556 45.3 131.456 46.28 129.356 46.28C127.236 46.28 125.716 45.16 125.716 43.4C125.716 41.62 127.176 40.72 129.436 40.5L133.296 40.14V39.76C133.296 38.28 132.296 37.34 130.536 37.34C128.776 37.34 127.756 38.24 127.196 39.52L125.856 38.9ZM127.256 43.36C127.256 44.42 128.196 44.98 129.556 44.98C131.916 44.98 133.296 43.6 133.296 41.58V41.38L129.636 41.72C128.276 41.84 127.256 42.26 127.256 43.36ZM135.754 36.24H137.414L140.474 44.5H140.714L143.774 36.24H145.434L141.674 46H139.514L135.754 36.24ZM146.477 33.2C146.477 32.46 147.057 31.9 147.797 31.9C148.537 31.9 149.117 32.46 149.117 33.2C149.117 33.94 148.537 34.5 147.797 34.5C147.057 34.5 146.477 33.94 146.477 33.2ZM148.557 36.24V46H147.037V36.24H148.557ZM151.149 36.24H152.629V37.98H152.909C153.409 37.02 154.349 36.08 156.329 36.08C158.389 36.08 160.189 37.4 160.189 40.1V46H158.649V40.22C158.649 38.32 157.609 37.42 155.909 37.42C153.989 37.42 152.669 38.66 152.669 40.98V46H151.149V36.24ZM170.464 36.24H171.944V45.64C171.944 48.3 170.124 50.28 167.204 50.28C164.604 50.28 163.124 49.02 162.184 47.56L163.584 46.78C164.164 47.9 165.284 48.9 167.104 48.9C169.044 48.9 170.424 47.78 170.424 45.54V44.12H170.184C169.624 45.1 168.644 46.08 166.624 46.08C164.024 46.08 162.004 44.04 162.004 41.02C162.004 38 164.024 35.96 166.624 35.96C168.644 35.96 169.624 36.94 170.184 37.92H170.464V36.24ZM166.984 44.68C169.044 44.68 170.424 43.28 170.424 41.02C170.424 38.76 169.044 37.34 166.984 37.34C164.964 37.34 163.544 38.7 163.544 41.02C163.544 43.34 164.964 44.68 166.984 44.68ZM174.348 38.78C174.348 36.98 176.028 35.96 178.028 35.96C179.988 35.96 181.388 36.74 182.868 38.54L181.688 39.34C180.648 37.88 179.368 37.26 178.048 37.26C176.788 37.26 175.868 37.78 175.868 38.76C175.868 39.84 176.928 40.02 178.128 40.2L179.048 40.34C181.308 40.68 182.908 41.26 182.908 43.14C182.908 45.02 181.188 46.28 178.648 46.28C175.888 46.28 174.308 44.62 173.588 43.08L174.968 42.38C175.608 44 176.928 44.94 178.688 44.94C180.288 44.94 181.368 44.24 181.368 43.18C181.368 42.1 180.148 41.92 178.868 41.74L177.948 41.6C175.808 41.3 174.348 40.62 174.348 38.78Z" fill="#151416"/>
</svg>
